<svg version="1.1" xmlns="http://www.w3.org/2000/svg" viewBox="0 0 814.1157474524609 779.4892739135289">
  <!-- svg-source:excalidraw -->
  
  <defs>
    <style class="style-fonts">
      @font-face {
        font-family: "Virgil";
        src: url("https://excalidraw.com/Virgil.woff2");
      }
      @font-face {
        font-family: "Cascadia";
        src: url("https://excalidraw.com/Cascadia.woff2");
      }
    </style>
  </defs>
  <rect x="0" y="0" width="814.1157474524609" height="779.4892739135289" fill="#ffffff"></rect><g stroke-linecap="round" transform="translate(10 10) rotate(0 397.05787372623047 379.74463695676445)"><path d="M0 0 C0 0, 0 0, 0 0 M0 0 C0 0, 0 0, 0 0 M-0.51 6.38 C2.45 4.78, 3.88 2.33, 5.48 -0.24 M-0.16 6.74 C1.05 4.65, 2.94 3.24, 5.19 0.22 M-0.68 13.21 C3.03 9.76, 5.17 5.52, 11.24 0.8 M0.14 12.66 C1.92 10, 4.26 6.99, 11.34 0 M-0.03 18.85 C6.02 11.46, 12.56 3.11, 15.92 1.62 M-0.76 18.24 C4.88 11.69, 10.63 5.97, 14.9 0.87 M-0.45 25.51 C3.62 19.77, 9.14 11.85, 22.1 0.66 M0.67 24.28 C7.15 16.63, 13.38 7.33, 20.52 0.71 M1.5 32.01 C5.32 23.3, 12.47 17.37, 28.12 1.46 M-0.05 31.05 C5.53 23.21, 10.81 17.18, 25.36 0.04 M0.96 35.92 C11.28 24.14, 18.17 14.46, 30.46 1.45 M-0.2 37.26 C8.21 27.42, 16.85 17.09, 32.13 0.27 M-0.3 40.97 C14.85 28.45, 27.89 12.11, 35.73 -0.87 M0.54 43.09 C10.96 28.43, 22.42 16.8, 36.55 0.38 M1.31 48.2 C13.36 33.47, 24.54 18.84, 43.05 0.93 M0.66 48.98 C12.62 33.48, 25.7 18.91, 42.96 -0.63 M0.88 55.56 C18.67 32.59, 37.62 11.31, 47.95 0.06 M-0.25 54.92 C13.55 39.13, 26.12 24.15, 47.53 0.91 M0.91 60.79 C13.3 46.38, 29.16 29.39, 52.73 -0.61 M-0.24 61.08 C11.86 46.54, 25.3 32.31, 53.96 -0.15 M1.02 69.05 C10.74 54.4, 26.5 39.49, 58.33 -1.65 M0 67.03 C13.13 51.13, 26.5 36.07, 58.66 0.81 M1.06 72.04 C20.76 46.16, 42.61 22.97, 62.7 -0.23 M-0.39 72.61 C24.71 43.53, 51.45 14.61, 64.44 0.71 M0.35 79.14 C18.49 57.23, 39.72 34.02, 68.7 0.79 M0.04 78.76 C14.24 62.34, 28.95 47.59, 69.69 -0.61 M-0.66 85 C18.81 63.93, 40.55 39.89, 74.45 -0.29 M0.06 84.77 C26.68 54.44, 52.57 24.82, 74.05 0.11 M-0.51 92.46 C19.34 69.19, 37.67 47.13, 81.23 -1.12 M0.98 90.91 C31.12 58.61, 58.92 23.57, 79.67 0.15 M1.01 96.15 C16.64 76.77, 37.15 54.1, 83.81 -0.46 M-0.35 97.69 C26.03 68.4, 51.22 38.52, 84.79 -0.64 M1.99 101.6 C31.79 70.52, 60.42 33.29, 90.38 0.77 M0.95 102.67 C35.01 64.31, 68.71 25.11, 91.02 0.72 M1.59 108.41 C22.51 85.56, 43.2 59.07, 96.89 -1.72 M0.23 109.35 C24.36 80.85, 50.05 52.36, 94.98 -1.07 M1.73 113.82 C28.79 81.41, 59.4 46.02, 98.94 -0.67 M0.39 116.39 C24.92 85.75, 49.33 57.66, 101.49 0.91 M-1.03 123.64 C37.5 77.33, 73.15 34.87, 106.14 1.62 M-0.97 122.2 C23.15 94.13, 47.13 65.99, 107.3 0.44 M-1.76 127.83 C31.61 93.77, 61.45 56.63, 110 0.11 M-0.53 128.3 C30.47 95.79, 58 62.38, 112.2 0.67 M-0.02 135.63 C32.02 98.82, 63.94 66.2, 117.64 -1.29 M-0.74 134.07 C29.48 99.54, 59.41 66.42, 116.13 -0.56 M-0.67 138.75 C27.21 108.85, 52.5 76.12, 122.97 1.34 M0.63 139.58 C29.6 106.53, 56.72 74.24, 121.58 0.11 M-0.21 146.88 C36.08 105.66, 74.2 62.37, 125.79 -0.88 M-0.49 146.92 C49.8 89.66, 98.14 34.39, 126.13 0.35 M1.04 150.85 C51.26 91.23, 103.06 32.53, 133.46 1.73 M0.65 152.73 C42.03 105.53, 81 58.89, 133.33 -0.47 M1.04 157.47 C53.09 99.85, 104.81 39.87, 137.31 1.24 M-0.89 159.57 C38.38 112.33, 76.67 67.35, 138.28 0.94 M-0.97 165.45 C56.41 99.66, 110.33 39.23, 142 1.3 M-0.35 164.8 C48.41 110.39, 94.59 55.53, 142.9 -0.68 M1.13 169.47 C48.76 114.78, 97.89 59.24, 149.59 1.66 M0.31 171.06 C35.48 129.63, 71.41 89.79, 148.8 -0.22 M1.62 176.29 C49.61 118.55, 100.44 59.33, 152.35 0.28 M-0.49 176.04 C40.62 129.42, 81.47 81.63, 154.28 -0.09 M-0.33 183.81 C58.9 116.83, 113.48 50.69, 159.3 -0.07 M-0.39 182.49 C54.43 117.32, 110.91 52.83, 158.24 -0.13 M0.99 190.49 C48.51 130.96, 96.4 75.54, 164.9 -0.47 M-0.07 189.96 C32.86 151.49, 66.45 112.29, 163.89 0.2 M0.36 194.85 C55.63 126.69, 113.95 63.98, 168.56 0.91 M0.34 194.36 C57.75 129.51, 114.43 65.7, 168.9 -0.06 M0.34 201.62 C47.62 144.47, 97.19 87.06, 173.88 0.34 M-0.38 202.05 C57.48 133.7, 115.03 66.61, 174.4 -0.65 M0.45 207.48 C64.36 137.45, 126.41 65.1, 181 1.65 M0.28 207.23 C57.48 143.11, 112.65 77.57, 179.96 -0.23 M-0.66 214.29 C43.89 166.18, 84.58 117.55, 186.71 -1.73 M0.52 212.87 C68.69 134.87, 137.31 56.34, 186.11 -0.22 M0.1 218.27 C59.97 150.85, 121.21 81.04, 189.52 1.56 M-0.69 219.43 C43.1 167.87, 88.05 116.36, 190.96 0.04 M0.04 225 C78.42 137.47, 155 47.97, 195.36 -1.21 M0.7 226.04 C68.55 148.64, 135.37 71.84, 195.84 -0.69 M-1.29 231.25 C41.39 180.87, 84.73 132.91, 201.2 -0.79 M0.2 231.83 C51.26 172.89, 103.87 112.44, 201.72 0.73 M0.11 238.32 C81.88 147.05, 160.65 53.45, 207.28 -1.38 M0.16 236.99 C81.46 143.93, 162.59 52.03, 207.48 -1 M-0.28 244.08 C48.22 190.23, 94.6 133.61, 212.62 0.81 M0.3 243.17 C79.87 153.59, 156.89 64.39, 212.35 -0.17 M-1.48 249.82 C77.66 161.4, 153.38 73.55, 218.17 0.82 M-0.15 250.17 C80.54 155.58, 162.01 61.92, 217.1 -0.13 M-1.16 257.2 C88.27 156.63, 172.03 56.89, 222.38 0.09 M0.14 255.82 C80.14 166.64, 156.94 76.99, 223.18 0.42 M0.36 263.2 C81.3 170.26, 162.93 75.56, 227.19 0.63 M0.07 262.75 C63.79 192.03, 126.1 119.8, 228.78 0.26 M0.32 268.89 C86.47 172.05, 172.35 74.5, 233.37 1.12 M-0.24 268.07 C49.14 210.29, 97.69 153.73, 233.41 -0.55 M-0.41 275.27 C50.02 217.38, 99.81 159.13, 238.19 0.2 M-0.51 273.8 C88.61 171.99, 178.03 68.63, 238.63 0.87 M-0.09 281.32 C60.34 208.41, 123.61 136.87, 244.51 -0.83 M-0.64 280.52 C90.25 173.94, 182.87 67.44, 243.83 -0.03 M0.3 286.72 C63.43 215.96, 126.11 142.59, 249.28 -0.37 M0.19 286.25 C70.77 202.16, 142.26 120.26, 248.43 0.24 M0.76 292.24 C100.51 178.07, 202.06 63.35, 253.92 -1.07 M-0.59 292.84 C74.52 209.46, 147.86 124.68, 254.11 0.51 M0.3 297.38 C92.84 190.72, 184.8 85, 259.54 1.43 M0.63 298.58 C87.08 199.47, 173.29 100.01, 259.88 0.42 M-0.54 304.44 C90.71 199.28, 182.61 94.39, 265.81 -0.94 M0.42 304.59 C104.86 182.42, 210.18 60.86, 265.3 -0.64 M0.63 311.56 C90.86 207.08, 183.52 101.41, 271.16 0.81 M0.17 310.94 C92.11 203.12, 186.09 95.16, 270.15 0.37 M0.32 317.81 C88.38 216.28, 176.05 115.5, 276.34 -0.1 M-0.21 316.99 C104.61 197.13, 208.69 78.66, 275.25 0.02 M-1.11 323.7 C93.55 213.71, 188.24 105.02, 279.83 0.49 M0.3 322.95 C78.3 232.66, 157.84 141.65, 280.77 0.36 M0.94 328.51 C96.86 215.52, 196.54 102.4, 285.58 -1 M0.15 329.12 C89.24 228, 177.81 126.28, 286.41 -0.16 M0.52 334.54 C68.1 256.74, 135.63 177.55, 292.11 1.02 M-0.28 334.9 C60.09 263.59, 121.72 193.67, 291.65 -0.3 M-1.16 342.24 C87.11 243.09, 173.63 143.66, 296.64 -0.46 M-0.22 341.99 C87.17 238.33, 176.11 135.91, 297.11 0.13 M0.25 347.25 C72.92 263.45, 145.6 179.31, 302.18 -0.56 M-0.07 346.95 C94.23 237.86, 188.3 129.29, 302.43 -0.21 M-0.49 354.52 C82.33 257.52, 166.16 161.5, 307.6 -0.18 M-0.27 353.49 C78.97 260.62, 159.7 168.14, 307.96 -0.3 M0.19 360.21 C94.98 250.91, 191.63 140.37, 312.61 0.76 M0.53 359.72 C90.53 253.76, 181.08 149.35, 312.52 0.02 M0.57 365.7 C68.82 283.33, 141.2 201.92, 317.91 -0.35 M-0.28 365.66 C107 244.28, 211.89 122.6, 317.89 -0.14 M-0.99 372.36 C102.16 256.01, 204.24 138.51, 323.9 0.89 M-0.19 372.45 C115.77 239.37, 232.16 104.96, 322.84 0.01 M0.78 377.41 C106.8 257.01, 210.27 136.46, 328.08 -0.03 M0.59 377.97 C85.82 281.74, 169.33 185.14, 328.62 -0.33 M-0.05 384.95 C92.25 279.21, 184.13 172.45, 333.42 0.03 M0.01 384.46 C84.43 286.01, 168.68 189.61, 333.89 0.26 M0.85 389.63 C124.68 245.33, 248.82 102, 339.38 -0.53 M0.47 390.08 C136.64 234.45, 272.19 78.67, 339.36 -0.42 M0.33 395.91 C119.49 258.46, 239.84 121.13, 345.22 0.05 M-0.22 396.08 C75.29 312.69, 148.59 228.03, 344.29 -0.26 M-0.82 401.89 C73.62 319.38, 146.73 234.27, 350.22 0.33 M-0.14 402.46 C118.81 264.22, 238.7 126.56, 349.69 0.43 M0.7 408.34 C75.06 321.18, 150.56 233.66, 355.39 -0.11 M0.21 408.13 C72.87 324.38, 146.82 238.97, 354.87 -0.13 M-0.5 414.92 C118.48 278.73, 236.71 141.54, 360.3 0.32 M0.1 414.96 C99.02 298.44, 198.87 183.32, 360.5 0.46 M0.3 420.78 C106.18 299.36, 212.47 177.2, 364.97 0.35 M-0.53 421.07 C115.67 289.25, 229.57 157.75, 366.15 -0.27 M0.47 427.2 C84.84 327.04, 170.33 228.75, 371.45 0.55 M0.35 426.56 C81.62 334.12, 163.85 239.49, 370.84 0.63 M-0.36 433.78 C123.78 288.56, 249.86 143.48, 376.72 -0.67 M-0.56 432.76 C121.21 293.94, 242.19 154.42, 376.03 0.07 M-0.02 438.32 C102.01 323.07, 202.83 208.18, 380.7 0.85 M0.11 438.77 C151.23 267.4, 301.72 94.02, 381.36 0.03 M-0.22 444.82 C90.43 341.98, 178.31 239.14, 387.14 -0.2 M0.14 445.37 C132.03 293.91, 264.63 141.24, 386.91 0.1 M0.14 452.11 C80.76 355.41, 161.6 262.24, 392.41 0.53 M-0.38 451.5 C95.51 341.86, 191.24 232.03, 392.05 0.58 M0.18 456.5 C80.13 363.21, 160.13 271.45, 397.62 0.2 M0.02 457.59 C81.21 364.81, 162.33 271.98, 397.75 -0.13 M0.39 463.99 C113.63 333.35, 226.55 203.33, 402.24 -0.04 M-0.03 463.24 C89.74 360.74, 179.75 257.93, 403.03 -0.11 M-0.39 469.31 C85.5 369.44, 171.6 269.62, 408.12 -0.75 M0.04 469.37 C100.64 356.14, 199.83 241.86, 408.03 -0.48 M-0.1 475.14 C134.01 320.9, 268.06 165.43, 413.19 0.6 M0.06 475.65 C83.65 377.5, 169.59 278.22, 412.95 0.03 M0.32 482.36 C141.76 317.09, 287.05 149.6, 418.7 -0.85 M-0.14 481.88 C132.75 329.04, 265.94 175.47, 418.6 0.05 M0.24 487.86 C98.03 375.75, 196.12 264.5, 424.4 0.19 M-0.05 488.06 C121.42 347.82, 243.79 207.35, 423.81 0.31 M-0.56 493.56 C98.87 381.34, 196.47 268.38, 429.53 -0.85 M-0.35 493.69 C85.12 393.13, 170.55 294.09, 429.2 0.12 M-0.1 499.9 C134.61 342.79, 271.66 186.74, 434.32 0.73 M0.28 499.88 C158.1 316.15, 317.13 132.73, 434.55 -0.28 M-0.53 505.79 C97.76 391.52, 195.99 278.81, 440.94 0.41 M0.11 506.08 C164.42 314.92, 331.35 123.49, 440.16 0.03 M0.04 513.28 C142.59 345.66, 286.72 181.27, 445.51 0.49 M-0.07 512.14 C162.41 323.5, 325.59 136.67, 445.03 0.12 M-0.32 517.41 C99.93 402.15, 201.87 285.5, 450.16 -0.45 M0.39 518.46 C116.27 387.13, 230.55 255.77, 450.69 -0.62 M-0.91 524.8 C112.46 394.72, 227.78 263.57, 455.08 0.45 M-0.5 524.45 C99.46 408.09, 200.16 293.28, 456.08 -0.18 M0.27 529.49 C120.46 390.55, 240.62 252.05, 460.96 -0.15 M0.53 529.89 C158.67 347.35, 319.04 163.58, 461.39 -0.59 M0.08 537 C147.12 370.09, 292.81 201.77, 465.85 -0.59 M-0.23 536.36 C132.74 387.27, 264.15 236.17, 466.22 -0.01 M0.12 543.32 C136.26 383, 276.52 222.88, 471.77 0.84 M0.08 543.04 C137.04 384.48, 273.71 226.93, 471.11 0.57 M0.39 548.76 C175.09 345.41, 350.47 143.72, 476.78 0.51 M0.31 548.34 C150.76 374.38, 302.07 200.11, 477.36 -0.13 M-0.62 555.78 C106.17 431.03, 213.72 308.2, 481.51 0.06 M-0.11 554.81 C114.89 423.57, 228.86 292.41, 482.02 0.34 M0.72 560.82 C150.23 386.05, 299.82 214.24, 487.74 -0.1 M0.41 560.9 C151.25 388.01, 302.6 214.18, 487.5 -0.04 M0.38 567.11 C138.26 409.72, 276.51 250.01, 492.06 0.77 M-0.24 567.19 C120.92 425.37, 243.52 284.09, 492.45 0.08 M-0.32 573.35 C126.09 428.31, 251.09 284.02, 497.93 -0.35 M0.07 573.77 C129.3 423.57, 258.61 274.83, 498.02 -0.38 M0.61 579.48 C113.42 447.15, 228.59 313.65, 502.9 0.97 M0.32 579.49 C155.86 397.58, 311.8 218.27, 503.54 0.51 M-0.49 586.13 C184.43 373.52, 368.99 162.36, 509.08 -0.3 M0.16 585.29 C193.26 363.29, 386.57 141.75, 508.79 -0.52 M0.1 591.3 C192.29 371.39, 383.72 151.11, 513.59 0.53 M-0.1 591.5 C163.2 405.7, 326.09 218.58, 513.73 -0.03 M0.67 598.3 C116.73 461.38, 234.04 325.87, 519.03 -0.56 M0.16 597.73 C156.43 419.43, 311.85 240.9, 519.87 -0.17 M-0.85 604.45 C181.55 393.21, 363.26 182.93, 523.87 -0.4 M-0.47 604.2 C148.81 433.69, 296.41 263.39, 524.45 0.08 M-0.44 610.09 C147.64 440.26, 295.36 271.74, 529.76 -0.65 M-0.09 609.44 C136.99 451.6, 275.68 291.94, 529.82 -0.18 M-0.66 616.38 C170.2 418.12, 341.37 221.29, 535.16 0.18 M-0.05 615.98 C178.08 412.38, 356.13 207.99, 535.22 0.12 M0.73 622.01 C206.01 388.83, 408.04 154.6, 540.98 -0.6 M0.6 621.27 C180.86 415.23, 360.5 208.72, 540.55 -0.15 M-0.39 627.93 C215.77 380.54, 432.06 132.18, 545.83 -0.22 M0.06 627.96 C168.87 431.2, 339.05 235.93, 546.13 0.25 M0.17 634.03 C117.6 494.58, 237.52 358.19, 551.7 -0.99 M-0.69 634.06 C211.85 392.53, 424.2 148.36, 551.71 0.01 M0.5 640.2 C119.48 502.31, 238.92 366.25, 555.97 -0.64 M0.36 640.17 C213.42 396.26, 425.81 151.22, 556.19 -0.14 M-0.82 645.69 C187.1 433.35, 373.25 218.64, 561.88 0.3 M-0.38 646.45 C175.87 445.61, 351.58 244.22, 562.28 0.03 M0.25 652.21 C194.92 429, 388.35 206.86, 567.38 0.16 M-0.12 652.3 C123.18 510.49, 245.61 369.66, 567.36 0.03 M0.44 659.1 C163.4 471.3, 324.47 285.69, 572.39 0.03 M-0.34 658.63 C125.73 511.72, 252.82 365.17, 572.98 -0.69 M-1.02 664.8 C170.9 468.52, 339.78 274.01, 577.22 0.51 M-0.46 665.24 C120.18 529.69, 239.01 393.33, 577.32 0.28 M-0.64 671.08 C158.85 487.28, 316.04 305.67, 582.78 0.02 M0.38 670.87 C137.79 509.79, 276.89 349.3, 582.42 0.07 M-0.29 677.62 C181.19 467.33, 360.83 259.68, 587.53 0.59 M-0.05 677.31 C152.34 505.52, 302.63 332.92, 588.31 0.21 M-0.48 681.91 C198.11 458.29, 393.18 231.55, 593.89 0.89 M0.06 682.72 C177.85 477.78, 356.38 273.57, 593.7 0.32 M-0.4 688.83 C212.67 444.41, 426.4 198.08, 598.91 -0.72 M-0.08 688.73 C230.91 420.52, 463.22 152.48, 599.08 0.27 M-0.85 696.12 C198.74 465.51, 395.98 236.65, 603.9 0.21 M0.06 695.34 C218.48 445.13, 436.95 193.51, 604.1 0.02 M0.6 701.77 C218.56 452.16, 435.7 203.48, 608.88 0.52 M-0.19 701.03 C208.7 459.52, 417.76 218.8, 609.75 0.2 M0.16 706.65 C226.88 446.2, 451.83 186.06, 614.2 0.65 M0.25 707.68 C243.65 429.96, 485.63 151.09, 614.9 0.4 M0.8 712.79 C212.99 466.75, 427.58 218.41, 619.86 0.53 M0.17 713.03 C228.29 447.23, 458.85 182.36, 620.15 -0.25 M-0.54 720.16 C237 443.21, 477.11 167.89, 625.49 -0.43 M-0.15 719.44 C239.67 446.27, 478.95 170.81, 625.11 -0.02 M0.12 726.52 C192.19 501.85, 387.7 276.96, 631.23 0.6 M-0.62 725.54 C153.75 547.62, 307.2 371.31, 630.66 -0.41 M-0.51 731.65 C219.53 474.4, 440.72 220.98, 636.18 0.21 M0.09 731.2 C206.57 492.8, 415.89 251.83, 635.46 0.14 M-0.18 738.38 C227.63 475.76, 456.02 213.2, 640.87 -0.9 M-0.45 737.57 C151.75 558.6, 306.8 381.29, 641.39 -0.38 M-0.36 742.8 C174.81 544.61, 348.05 346.23, 647.24 0.45 M0.35 743.63 C159.65 559.16, 322.06 372.05, 646.85 0.31 M0.09 750.32 C216.2 498.22, 434.11 248.1, 651.58 -0.54 M0.18 750.06 C239.09 473.68, 477.86 198.71, 652.2 -0.2 M0.38 756.29 C249.82 471.4, 498.38 183.62, 657.33 0.9 M-0.14 756.59 C249.51 468.4, 499.78 180.8, 657.1 0.39 M0.8 759.92 C151.51 584.82, 301.59 411.59, 663.12 -0.98 M1.23 760.56 C222.83 505.67, 443.71 251.19, 662.69 -0.64 M6 760.49 C246.13 487.61, 483.87 213.79, 667.66 0 M6.14 761.02 C250.2 483.35, 492.7 203.73, 667.36 -0.04 M12.54 759.88 C241.62 495.67, 473.12 229.08, 673.75 0.17 M11.79 760.33 C264.21 472.62, 513.09 185.55, 673.76 0.01 M17.81 760.07 C228.35 522.23, 438.06 281.08, 678.75 0.48 M16.9 760.73 C196.18 550.65, 377.87 341.92, 678.13 -0.18 M23.35 760.39 C257.2 489.01, 491.85 218.79, 683.44 -0.84 M22.42 760.7 C184.61 575.52, 344.5 392.06, 683.71 -0.5 M26.93 760.72 C286.97 462.01, 545.82 163.21, 688.85 -0.25 M27.3 761.16 C278.95 471.23, 531.39 180.55, 689.25 -0.33 M32.98 760.56 C180.81 587.48, 330.06 416.5, 693.92 -1.05 M33.02 760.51 C287.84 463.17, 545.15 167.81, 694.51 -0.36 M38.2 760.68 C277.89 480.8, 519.78 202.47, 700.34 -0.51 M38.6 760.86 C295.82 466.11, 550.81 172.4, 699.89 -0.34 M43.7 760.57 C230.62 544.66, 415.82 330.76, 704.77 0.31 M43.58 760.66 C305.71 457.08, 568.72 154.52, 704.87 0.68 M48.55 760.08 C212.63 573.3, 375.96 386.1, 710.12 -0.74 M48.59 760.89 C308.27 461.1, 569.93 160.02, 710.16 -0.4 M53.91 760.08 C304.88 474.51, 553.82 188.19, 714.45 0.43 M54.29 760.11 C296.08 485.22, 535.56 209.97, 715.16 0.64 M59.83 760.91 C247.41 543.33, 434.08 328.13, 720.81 -0.32 M59.6 760.72 C283.78 502.19, 508.57 243.65, 721.1 -0.23 M64.54 759.82 C263.83 531.7, 463.04 302.36, 726.01 0.62 M65.43 759.9 C261.17 536.65, 454.17 314.53, 725.95 -0.11 M70.84 760.63 C303.07 493.13, 535.86 224.8, 731.17 -0.73 M70.49 760.72 C308.75 488.3, 546.14 215.18, 731.5 0.11 M75.18 760.75 C323.37 474.99, 572.34 188.41, 736.86 0.12 M75.18 760.66 C282.7 525.89, 489 287.66, 736.6 0.5 M80.5 760.19 C328.22 478.84, 576 194.49, 742.46 -0.8 M80.67 760.5 C223.49 599.2, 363.68 437.8, 741.87 0.21 M85.13 761.03 C255.62 563.89, 425.44 368.18, 747.73 0.07 M85.43 761.23 C256.78 561.36, 431.55 360.76, 746.99 0.59 M91.03 760.81 C285.58 540.66, 478.75 319.07, 752.1 0.13 M91.68 760.55 C272.39 552.7, 452.32 345.56, 752.89 0.14 M95.81 760.59 C319.8 503.4, 543.36 245.76, 757.89 0.25 M96.23 760.78 C296.24 533.03, 495.71 304.07, 757.55 -0.03 M101.6 760.79 C296.01 535.89, 490.36 312.03, 763.2 -1 M102.39 760.61 C320.68 513.07, 537.12 263.17, 763.74 -0.38 M107.07 761.24 C331.83 500.57, 557.84 241.02, 768.32 0.72 M106.83 760.58 C302.89 532.84, 500.51 305.96, 768.44 0.09 M113.11 760.28 C374.64 460.15, 634.59 159.95, 773.41 0.2 M113.02 760.48 C364.7 467.37, 618.85 174.48, 773.77 -0.36 M118.05 761.1 C337.71 506.91, 557.4 255.2, 778.54 0.24 M117.4 760.78 C275.79 577.91, 435.09 394.01, 778.77 0.07 M123.35 759.73 C290.33 573.62, 454.36 383.36, 784.52 -0.39 M123.53 760.84 C296.21 561.47, 470.59 361.21, 784.83 0.06 M128.82 760.96 C325.92 531.13, 524.06 303.79, 789.78 -0.58 M128.28 761.18 C284.54 581.96, 439.96 403.25, 789.78 -0.12 M133.48 759.87 C359.6 503.7, 584.57 244.29, 795.36 -0.24 M133.6 760.82 C394.66 458.44, 657.94 156.27, 794.29 0.33 M138.79 761.05 C381.81 479.02, 628.96 195.73, 794.31 7.54 M139.12 760.42 C334.72 538.83, 528.89 315.42, 794.15 7.17 M144.74 760.08 C400.03 463.45, 656.99 168.12, 793.98 12.43 M144.27 760.41 C303.37 580.89, 461.39 400.01, 795.11 12.6 M149.88 761.12 C290.85 595.98, 435.04 430.18, 794.92 19.48 M149.71 760.85 C381.88 492.35, 615.32 224.02, 794.69 18.94 M155.34 760.03 C387.08 489.7, 619.06 221.64, 794.77 23.81 M155.49 760.46 C322.67 566.16, 489.97 373.65, 794.6 24.39 M160.14 760.37 C315.28 584.15, 466.56 409.44, 794.62 31.37 M160 760.45 C340.6 556.21, 517.97 352.03, 794.86 30.86 M165.19 759.67 C314.23 587.31, 464.3 414.85, 794.54 38.03 M166.17 760.31 C377.61 511.74, 591.78 265.3, 794.55 37.35 M170.15 760.68 C391.02 505.01, 613.66 249.35, 795.15 43.36 M170.85 760.87 C306.45 607.43, 440.72 452.82, 794.84 43.18 M175.91 760.81 C327.31 589.54, 477.32 415.88, 794.61 50.05 M176.56 760.12 C409.62 491.41, 642.12 223.02, 794.81 49.73 M181.4 760.2 C331.66 588.72, 480.11 419.35, 795.17 54.21 M181.67 761.02 C334.9 584.48, 489.82 406.77, 794.57 55.37 M187.68 760.76 C330.26 596.48, 472.59 430.88, 795.25 61.34 M187.42 760.14 C359.46 563.13, 532.46 364.23, 795.03 61.72 M191.53 761.38 C369.33 559.28, 545.56 356.72, 794.41 68.58 M192.01 760.27 C423.23 494.19, 655.22 226.55, 794.65 67.77 M196.93 761.02 C384.16 548.26, 568.82 336.9, 795.1 73.72 M197.02 760.63 C431.67 490.77, 667.4 220.2, 794.85 73.2 M202.29 761.31 C346.57 594.52, 493.54 425.61, 794.7 79.47 M202.36 760.88 C397.09 534.99, 592.05 310.37, 794.2 80.07 M206.97 761.14 C440.11 495.72, 669.15 231.4, 795.35 85.26 M207.72 761.26 C354.65 592.02, 501.05 423.34, 794.83 85.32 M213.14 759.77 C432.91 510.29, 650.31 259.36, 794.41 92.07 M213.33 760.72 C390.42 555.47, 570.64 348.13, 794.91 91.91 M217.7 761.59 C357.67 602.08, 498.61 440.63, 794.24 97.48 M218.06 760.8 C339.21 621.6, 461.72 480.07, 794.23 98.06 M224.49 760.82 C382.36 576.53, 541.13 392.89, 794.32 104.68 M224.08 760.57 C378.55 584.2, 532.95 406.04, 794.84 103.83 M229.78 760.75 C376 591.85, 522.54 421.48, 794.51 110.69 M229.37 760.56 C375.04 592.6, 522.02 423.11, 794.41 110.37 M234.46 760 C402.94 569.87, 569.34 377.72, 795.31 115.85 M234.72 760.86 C386.96 585.59, 540.25 409.36, 795.02 115.65 M239.19 760.51 C391 584.17, 543.62 409.08, 794.64 122.16 M239.51 761.08 C453.23 513.85, 666.43 269.08, 794.89 122.34 M245.31 760.3 C409.41 570.02, 575.47 378.73, 794.53 128.39 M245.47 760.07 C407.24 575.6, 568.05 390.9, 794.74 128.78 M250.05 761.4 C443.03 537.84, 635.19 317.32, 794.72 134.27 M250.08 760.59 C465.15 513.67, 678.6 267.82, 794.4 134.59 M255.41 761.01 C420.33 573.46, 584.63 386.54, 794.44 141.51 M255.91 760.34 C372.42 624.76, 489.85 489.7, 794.2 140.84 M260.19 761.05 C469.48 521.83, 677.24 282.38, 794.15 145.67 M260.82 760.58 C424.01 572.4, 588.41 383.04, 794.99 146.57 M267.26 760.88 C394.7 614.27, 519.61 469.51, 794.04 152.15 M266.54 760.31 C402 605.94, 537.57 450.31, 794.59 152.6 M270.78 760.53 C437.99 568.77, 604.44 376.31, 794.19 158.45 M271.22 760.97 C464.62 537.35, 657.86 314.99, 794.21 158.95 M277.89 759.75 C477.38 530.83, 675.23 302.09, 794.72 164.79 M277.22 760.62 C448.53 563.21, 619.29 367.15, 795.05 164.89 M281.51 761.23 C441.07 579.03, 600.8 394.27, 794.21 171.91 M282.09 760.99 C400.58 621.4, 520.63 482.95, 794.9 171.43 M288.44 760.12 C463.76 554.2, 642.09 349.07, 794.8 176.16 M287.93 760.04 C425.87 601.78, 564.52 441.69, 795.3 177.05 M292.18 759.99 C475.23 546.99, 659.37 335.67, 794.13 183.88 M293.17 760.69 C478.49 546.69, 665.56 332.95, 794.88 183.2 M297.8 760.77 C436.7 599.38, 579.02 437.65, 793.65 190.44 M298.78 760.15 C420.31 619.6, 542.16 479.71, 794.12 190.01 M302.74 760.33 C463.19 575.89, 623.77 391.82, 795.45 195.71 M303.17 761.01 C432.44 610, 563.7 460.18, 795.16 195.58 M308.3 760.72 C434.63 616.47, 562.43 468.96, 794.35 201.82 M308.58 761.38 C457.3 586.94, 608.31 413.58, 794.41 201.69 M313.25 761.23 C434.91 617.68, 558.84 477.17, 794.18 206.64 M313.7 760.55 C417.46 640.69, 523.65 519.16, 795.29 207.14 M318.78 760.97 C461.93 596.55, 603.01 433.32, 794.94 213.41 M319.05 760.73 C442.2 621.88, 562.64 482.28, 794.41 213.97 M323.9 760.36 C446.73 620.35, 569.59 478.49, 794.64 220.93 M324.55 760.36 C488.9 571.42, 652.7 381.93, 794.28 220.07 M330.25 761.1 C489.29 578.84, 646.61 396.88, 794.22 226.26 M330.05 761.16 C503.26 558.28, 678.45 356.35, 795.18 225.61 M335 760.48 C465.38 608.62, 596.95 456.97, 794.4 232.05 M335.19 760.75 C513.69 554.54, 693.1 348.09, 794.89 232.37 M340.46 760.99 C464.48 619.69, 585.98 478.92, 794.33 238.49 M340.67 760.51 C472.97 608.51, 606.57 454.62, 795.11 237.85 M345.38 759.8 C482.63 603.93, 618.78 448, 794.81 244.82 M345.69 760.52 C474.19 611.49, 603.31 462.13, 794.8 243.95 M351.33 761.58 C485.12 608.47, 619.37 454.63, 793.69 250.84 M350.9 761.09 C498.62 590.91, 648.41 419.18, 794.08 250.32 M357.22 760.01 C494.67 600.42, 634.47 440.15, 795.59 256.35 M356.61 760.1 C448.2 653.63, 540.82 547.55, 794.92 256.04 M360.88 760.12 C528.09 569.28, 696.54 375.48, 794.38 262.08 M361.7 760.89 C513.09 585.2, 665.62 409.96, 794.46 262.89 M366.39 759.88 C530.14 574.62, 691.01 388.61, 794.2 268.06 M367.47 760.81 C508.58 596.09, 651.16 432.24, 794.67 268.72 M372.86 761.31 C463.34 657.15, 553.68 553.53, 795.07 275.11 M372.55 760.73 C500.84 612.94, 629.02 465.34, 794.8 274.52 M378.52 760.05 C524.27 590.79, 671.64 420.57, 794.75 281.58 M377.53 760 C481.86 638.59, 587.21 516.83, 794.59 280.91 M382.35 761.32 C465.46 666.2, 548.43 570.88, 795.2 287.53 M383.07 761.12 C492.91 634.44, 603.42 507.64, 794.84 286.69 M388.14 759.84 C537.29 590.28, 684.97 419.94, 794.66 292.56 M388.17 760.72 C543 581.89, 698.25 403.36, 794.88 292.9 M393.33 760.62 C513.8 622.59, 634.56 482.56, 794.32 298.85 M393.83 760.62 C491.28 649.94, 586.98 539.83, 794.86 298.55 M399.51 760.45 C537.88 600.23, 676.29 438.84, 795.1 304.79 M398.92 760.45 C534.41 602.97, 671.5 445.71, 794.74 305.32 M404.35 760.73 C483.18 671.08, 561.68 580.44, 794.68 311.19 M403.91 760.66 C531.85 614.89, 659.86 467.66, 794.21 311.66 M409.02 760.14 C523.34 628.46, 639.22 495.98, 795.61 317.56 M409.85 759.95 C559.19 588.07, 707.43 417.23, 794.95 316.91 M414.86 761.06 C536.47 619.27, 661.1 476.72, 794.18 323.08 M414.95 760.72 C552.22 604.01, 687.31 447.97, 794.77 323.78 M419.58 760.66 C502.66 667.55, 585.6 573.46, 795.07 329.67 M419.97 760.04 C556.91 603.31, 692.45 447.28, 794.83 329.28 M425.21 760.5 C511.6 663.47, 595.48 566.91, 795.33 335.6 M425.53 760.75 C525.69 645.01, 625.12 530.74, 794.56 335.79 M430.37 761.58 C562.85 609.36, 694.02 459.23, 794.23 341.72 M430.54 760.76 C558.46 616.17, 684.36 470.62, 794.8 342.03 M436.73 760.59 C511.84 675.06, 585.51 589.58, 794.97 347.73 M435.95 760.37 C551.84 628.78, 666.05 496.97, 795.22 347.9 M441.08 760.49 C513 676.54, 586.33 591.47, 795.13 354.74 M440.58 760.75 C520.42 667.72, 601.17 574.49, 794.94 353.79 M446.82 760.77 C545.59 648.83, 643.3 536.25, 794.25 361.1 M446.66 760.45 C544.55 649.09, 641.89 536.09, 794.24 360.3 M451.13 760.7 C545.45 651.97, 641.81 542.58, 793.95 366.67 M451.62 760.95 C558.26 637.24, 665.83 513.82, 794.35 365.9 M457.05 759.95 C530.78 677.13, 602.63 592.59, 794.78 372.15 M457.45 760.74 C538.63 668.2, 620.15 575.2, 794.06 372.61 M462.33 760.26 C572.3 636.69, 679.12 512.31, 794.87 379.02 M462.44 760.85 C569.64 636.83, 675.93 514.2, 794.5 378.6 M468.3 759.69 C567.79 647.2, 664.82 534.4, 794.75 384.65 M468.23 760.62 C535.25 685.7, 600.77 610.3, 794.85 384.37 M473.46 760.68 C581.26 638.05, 688.6 513.73, 794.35 390.24 M473.12 760.76 C597.57 618.33, 721.76 474.97, 793.92 390.96 M479.19 761.13 C594.37 625.69, 711.55 491.47, 794.72 397.13 M478.25 760.79 C569.26 658.12, 658.45 554.88, 794.8 396.83 M483.26 760.56 C586.58 642.23, 688.69 525.99, 794.95 402.51 M483.47 761.13 C566.15 668.18, 648.09 574.76, 794.08 403.51 M489.12 759.74 C605.89 625.68, 721.27 493.63, 795.45 408.18 M489.38 760.73 C585.72 649.28, 682.52 537.69, 795.02 408.89 M494.08 760.34 C602.6 636.87, 712.45 511.78, 794.89 414.94 M493.84 760.7 C589.89 652.74, 685.18 543.34, 794.69 415.31 M500.4 760.82 C569.78 681.69, 639.3 601.31, 793.55 421.02 M499.35 760.4 C576.11 673.05, 652.71 585.7, 794.02 421.9 M504.98 760.94 C599.2 652.32, 693.75 545.75, 793.87 426.76 M504.37 760.96 C599.97 648.82, 695.73 539.1, 794.36 426.87 M510.93 760.03 C613.97 642.07, 716.65 524.07, 795.26 433.46 M510.6 760.33 C615 638.67, 720.04 518.01, 794.78 433.15 M514.99 761.73 C608.51 651.6, 703.44 542.38, 794.89 438.47 M514.89 760.69 C599.35 663.95, 684.13 566.17, 794.71 439.41 M521.53 759.98 C611.52 656.51, 702.23 552.81, 795.39 445.77 M520.92 760.7 C584.2 687.21, 648.04 615.15, 794.04 445.24 M525.29 760.11 C623.91 649.78, 720.71 538.74, 793.4 452.92 M525.91 760.69 C592.04 683.27, 659.53 606.02, 793.94 452.49 M532.24 760.83 C596.36 687.28, 660 614.76, 795.37 457.73 M531.24 760.15 C622.8 658.19, 712.61 554.87, 795.05 457.13 M537.5 760.29 C636.2 643.61, 739.11 524.62, 794.25 463.42 M536.52 760.88 C638.57 642.71, 741.42 524.56, 794.52 463.83 M541.46 760.36 C624.82 666, 709.4 571.15, 794.74 469.49 M542.19 760.82 C620.2 671.3, 699.74 580.65, 795.42 469.98 M546.47 760.48 C611.08 687.95, 673.23 614.32, 795.18 475.81 M547.64 760.02 C645.36 649.12, 744.36 535.93, 794.92 476.38 M553.3 760.14 C640.93 659.24, 728.33 558.97, 794.99 482.45 M551.91 761.11 C620.22 685.27, 686.19 609.8, 794.91 482.35 M558.92 761.5 C608.86 703.58, 660.1 646.53, 795.72 487.77 M557.44 760.55 C629.79 678.16, 700.9 595.41, 794.35 488.45 M564.14 761.16 C618.17 695.92, 674.45 630.33, 795 493.67 M562.64 761.14 C624.5 691.95, 685.72 620.41, 794.94 494.08 M569.81 759.51 C650.39 666.94, 733.41 571.81, 794.21 500.95 M568.58 760.16 C655.91 657.88, 745.66 554.54, 794.73 500.09 M574.71 760.1 C618.44 708.06, 664.99 655.75, 794.15 505.43 M574.02 760.9 C630.87 697.67, 686.47 632.72, 794.52 506.28 M578.91 761.43 C629.45 706.77, 676.54 649.9, 795.12 511.62 M579.63 760.4 C659.15 670.43, 737.27 579.52, 793.78 512.91 M584.73 760.56 C636.25 702.24, 687.94 644.15, 795.49 519.96 M584.42 761.21 C646.99 688.05, 712.05 614.35, 794.21 518.08 M589.06 761.58 C666.14 671.85, 744.04 584.43, 793.17 526.41 M589.88 760.28 C656.83 686.01, 722.37 610.06, 794.03 524.41 M595.54 759.96 C640.22 705.23, 689.37 650.15, 794.11 531.64 M595.12 760.96 C637.64 711.85, 680.99 661.58, 794.21 530.05 M600.84 759.77 C640.96 714.21, 682.28 666.17, 793.57 536.74 M600.96 760.3 C676.35 675.17, 752.11 588.19, 795 536.48 M604.41 760.36 C650.91 707.01, 697.72 651.21, 792.9 544.26 M604.88 761.25 C658.72 697.02, 714.16 632.28, 795.06 543.69 M612.05 759.44 C678.06 684.25, 742.93 607, 795.69 549.27 M611.2 761.13 C665.69 697.42, 720.31 633.98, 794.06 548.3 M616.24 759.97 C660.28 709.52, 701.22 662.21, 794.44 554.11 M615.61 761.09 C679.7 686.6, 743.43 614.47, 794.28 555.37 M620.42 761.86 C672.94 700.76, 725.47 643.15, 794.25 561.08 M621.34 760.49 C661.05 717.37, 698.68 675.02, 794.86 561.39 M625.62 762.17 C679.71 697.25, 735.63 634.16, 793.27 566.49 M626.6 760.33 C683.22 694.66, 741.09 629.77, 794.41 566.75 M633.47 759.2 C685.19 698.79, 737.45 640.49, 794.32 575.06 M631.67 760.82 C682.39 702.6, 733.36 645.71, 794.59 574.28 M638.28 759.65 C693.66 698.55, 749.24 635.18, 794.18 580.43 M637.28 761.39 C685.93 703.89, 733.49 649.55, 795.2 579.03 M643.09 760.11 C697.15 693.11, 752.25 630.3, 795.54 587.63 M643.7 759.95 C697.25 698.34, 751.98 635.32, 794.14 585.61 M648.95 760.25 C690.42 709.3, 734.72 659.8, 796.02 592 M647.33 761.17 C677.83 723.3, 709.92 687.64, 794.1 591.96 M653.64 761.74 C685.2 727.57, 714.82 692.4, 793.83 599.54 M652.61 761.58 C703.84 699.32, 756.15 640.14, 794.39 597.3 M657.28 761.02 C693.92 721.09, 731.37 677.73, 793.54 605.18 M658.44 760.69 C707.54 705.57, 754.82 651.67, 794.06 604.36 M665.22 762.72 C697.91 721.11, 732.97 684.29, 794.69 609.62 M663.45 760.43 C712.12 705.38, 758.15 652.34, 795.59 609.93 M668.59 761.1 C711.13 714.99, 750.31 667.84, 794.09 615.37 M669.21 760.34 C709.82 713.26, 750.91 666.86, 794.4 616.36 M672.23 760.91 C713.36 713.04, 757.78 665.28, 795.29 622.82 M673.57 760.56 C718.74 709.9, 761.54 661.5, 794.63 621.45 M679.97 762 C707.94 730.43, 734.53 696.52, 792.85 628.37 M680.25 759.8 C708.42 729.8, 735.55 698.45, 795.41 628.87 M685.31 761.36 C723.21 715.82, 761.11 672.18, 793.91 636.38 M684.05 760.2 C708.85 733.28, 731.89 706.52, 793.42 635.46 M690.02 760.13 C725.36 722.17, 761.5 683.9, 793.38 642.26 M690.57 759.86 C724.41 719.92, 759.32 680.1, 795.39 640.11 M696.04 762.51 C732.75 717.04, 768.25 674.36, 793.14 647.59 M695.33 761.39 C716.33 738.05, 736.27 714.34, 794.61 646.5 M699.8 758.59 C723.65 733.27, 746.12 707.67, 795.66 651.72 M701.54 760.46 C733.9 721.43, 765.77 684.85, 793.98 652.47 M704.14 759.28 C738.36 724.15, 769.54 685.7, 795.97 658.71 M705.2 760.4 C741.28 721.39, 776.99 681.76, 795.15 658.55 M712.68 759.14 C740.98 724.91, 774.76 686.7, 795.31 664.87 M710.87 760.7 C740.77 727.02, 769.9 693.39, 793.56 665.26 M717.66 759.28 C741.91 733.93, 764.12 709.35, 796.33 669.94 M716.79 761.65 C740.23 734.93, 761.01 709.08, 794.94 671.97 M722.36 762.23 C738.25 739.59, 756.19 721.3, 794.22 676.23 M722.61 760.82 C745.48 734.82, 768.27 708.14, 793.77 677.68 M728.93 758.8 C754.03 731.47, 778.63 699.43, 794.47 684.18 M726.57 761.72 C753.43 731.57, 777.87 701.58, 794.28 682.31 M732.83 758.99 C752.25 739.41, 770.4 716.43, 792.67 691.3 M733.17 760.24 C755.42 735.28, 776.66 710.36, 793.66 689.32 M738.62 758.83 C752.73 741.07, 767.81 722.84, 796.3 695.75 M738.37 761.34 C750.48 747.34, 761.68 734.1, 795.11 695 M742.41 759.26 C760.9 740.72, 775.58 722.16, 795.86 699.5 M743.28 759.51 C756.91 746.73, 768.58 731.23, 794.27 701.22 M747.69 761.04 C758.92 747.51, 772.24 733.23, 796.01 707.42 M749.35 761.41 C763.81 743.58, 777.87 726.14, 793.71 708.37 M755.72 759.56 C764.58 750.37, 772.74 736.59, 793.33 714.93 M754.03 760.36 C767.12 744.67, 782.33 728.74, 793.97 712.55 M757.42 759.78 C766.2 750.36, 773.62 742.42, 796.13 718.88 M760.01 760.97 C768.65 749.14, 779.25 738.93, 794.73 720.2 M763.71 759.07 C773.67 747.17, 783.98 736.68, 794.26 725.14 M764.85 759.66 C772.48 750.47, 780 743.42, 793.84 725.38 M769.41 762.11 C776.32 751.67, 785.52 743.58, 794.17 731.77 M770.21 761.23 C775.69 754.48, 781.25 747.02, 793.82 732.62 M774.96 760.46 C780.76 752.98, 788.55 746.37, 794.13 740.12 M774.86 760.19 C782.93 752.57, 790.05 743.51, 794.27 737.7 M781.57 759.75 C784.25 755.27, 789.16 746.95, 793.93 742.44 M781.14 761.54 C786.59 754.24, 792.21 748.28, 794.96 744.96 M786.08 762.23 C787.9 758.02, 789.97 754.41, 794.71 749.26 M785.46 761.43 C788.33 757.74, 791.59 754.17, 794.89 750.04 M791.34 760.69 C792.67 759.26, 793.71 757.36, 793.99 757.24 M791.15 760.77 C792.35 759.32, 793.21 757.95, 794.23 756.69" stroke="#fa5252" stroke-width="0.5" fill="none"></path><path d="M0.79 -0.02 C175.96 -2.43, 349.82 -2.6, 793.93 0.52 M0.14 0.01 C191.63 3.42, 383.91 3.18, 794.25 -0.26 M793.91 0.77 C795.65 249.21, 794.59 497.33, 794.31 759.79 M794.36 0.23 C792.16 281.82, 791.99 563.9, 794.12 759.55 M793.4 760.28 C492.04 762.78, 189.33 762.59, -0.44 759.56 M794.29 759.5 C513.07 760.22, 231.97 760.72, -0.33 759.54 M0.65 759.38 C-3.44 545.98, -2.4 332.71, 0.02 0.31 M0.23 759.28 C-1.99 483.63, -1.9 208.01, 0.17 0.15" stroke="#000000" stroke-width="1" fill="none"></path></g><g stroke-linecap="round"><g transform="translate(548.5899509252158 166.13301033375546) rotate(0 -149.78172894055723 222.71481205836187)" fill-rule="evenodd"><path d="M-1.27 1.44 L1.23 409.44 L-28.16 445.99 L-302.45 445.01 L-297.8 412.72 L-279.85 374.08 L-279.18 -1.89 L-1.62 -1.72" stroke="none" stroke-width="0" fill="white" fill-rule="evenodd"></path><path d="M-0.98 -0.52 C0.87 105.77, 1.43 211.9, 0.1 410.55 M-0.41 -0.06 C-1.35 145.49, -1.35 290.68, 1.54 410.32 M-0.92 411.34 C-8.97 423.88, -22.23 435.28, -28.5 445.7 M1.81 409.17 C-7.76 421.27, -17.46 431.49, -28.86 446.14 M-29.4 446.9 C-87.1 444.89, -146.63 443.88, -301.37 446.78 M-28.54 446.22 C-137.35 446.91, -246.25 446.64, -300.55 447.56 M-300.59 446.1 C-301.19 433.81, -301.06 421.11, -299.45 411.79 M-300.49 446.95 C-299.34 438.56, -300.79 431.99, -298.15 410.26 M-300.06 411.41 C-293.06 398.59, -287.64 387.2, -279.99 375.18 M-299.58 410.09 C-292.56 398.59, -285.02 387.8, -278.66 375.95 M-279.93 375.93 C-279.28 286.97, -280.77 197.7, -281.18 0.34 M-279.33 375.63 C-278.07 261.14, -277.93 147.27, -281.17 0.48 M-280.42 -0.95 C-185.59 -3.32, -89.11 -1.79, -0.04 0.69 M-280.56 -0.13 C-207.66 -0.69, -133.68 -1.6, -0.49 0.16 M0 0 C0 0, 0 0, 0 0 M0 0 C0 0, 0 0, 0 0" stroke="#000000" stroke-width="1" fill="none"></path></g></g><mask></mask><g stroke-linecap="round" transform="translate(270.5480628409098 167.57745477820004) rotate(0 139.01545625307926 187.17272533143876)"><path d="M0 0 C0 0, 0 0, 0 0 M0 0 C0 0, 0 0, 0 0 M-0.53 6.58 C0.57 4.77, 1.93 3.21, 5.01 -0.22 M-0.13 6.2 C1.4 4.62, 2.65 3.07, 4.88 0.05 M-1.14 13.31 C4.19 8.9, 6.63 6.13, 10.04 0.87 M0.41 12.61 C2.75 7.73, 6.2 4.32, 10.77 -0.3 M1.49 19.64 C4.29 14.78, 8.01 10.35, 15.02 2.21 M0.12 19.31 C4.89 12.7, 9.59 7.03, 16.33 0.83 M-0.1 23.55 C6.92 17.1, 11.93 8.66, 19.31 1.74 M1.03 23.7 C7.14 16.91, 12.9 9.48, 21.71 -0.37 M1.56 28.82 C7.28 19.35, 16.78 10.39, 25.3 2.07 M-0.04 30.19 C5.82 24.96, 10.2 18.29, 27.09 0.56 M-0.51 35.55 C11.7 25.32, 21.31 9.55, 33.33 -0.4 M-0.5 36.28 C12.33 21.86, 25.64 8.32, 32.18 0.55 M-1.09 43.86 C12.5 28.72, 26.48 11.6, 37.14 -0.11 M0.72 43.45 C14.33 26.52, 26.54 12.22, 37.59 -0.52 M0.09 49.26 C14.63 30.84, 32.14 9.38, 42.04 0.72 M-0.3 49.82 C8.17 38.81, 18.29 28.77, 42.62 0.52 M-0.14 54.54 C16.91 34.92, 35.38 12.8, 48.47 -0.66 M0.72 55.34 C12.37 40.09, 24.96 25.14, 46.6 0.64 M-0.78 60.87 C20.68 38.57, 37.31 18.17, 54.19 -0.56 M-0.4 60.25 C14.68 43.34, 31.34 24.71, 52.65 -0.99 M0.79 67.71 C21.41 41.91, 43.22 15.83, 57.87 -1.58 M-1.22 68.23 C22.59 42.38, 45.68 15.1, 59.05 -0.56 M-0.26 72.14 C18.04 51.77, 38.97 29.69, 65.24 -1.59 M0 73.1 C23.21 43.97, 48.33 17.42, 63.01 -1.16 M-1.31 80.27 C21 54.57, 44.38 31.19, 68.66 1.46 M0.83 79.54 C22 54.32, 43.59 28.13, 68.02 -0.37 M1.19 83.11 C24.39 53.91, 53 24.06, 73.33 0.61 M-0.13 84.23 C19.51 61.93, 40.21 39.05, 73.61 0.18 M-0.69 91.69 C31.41 55.26, 64.74 17.54, 80.82 -0.92 M0.01 92.32 C30.73 56.07, 61.27 20.67, 78.73 -0.72 M-0.85 96.93 C17.2 76.6, 38.8 55.01, 83.28 1.32 M-0.36 98.61 C31.16 63.48, 61.58 28.21, 85.51 0.54 M-0.28 105.01 C20.3 80.03, 39.27 56.81, 91.02 0.21 M-0.77 104.21 C22.03 78.68, 45.14 52.33, 90.59 0.83 M-0.15 108.77 C26.17 80.92, 51.93 49.76, 94.62 0.13 M-0.09 109.28 C28.7 77.35, 58.98 43.45, 94.93 -1.24 M-0.32 115.56 C20.4 93.22, 43.29 70.14, 100.61 0.12 M0.61 116.17 C28.42 81.81, 57.3 47.95, 101.13 -0.95 M0.26 122.39 C24.4 95.01, 45.56 68.62, 105.54 0.95 M-0.57 121.9 C23.16 97.43, 46.48 70.6, 107.24 -0.96 M1 127.77 C42.9 77.95, 83.84 31.87, 111.64 0.35 M0.73 129.29 C29.16 96.04, 56.54 63.94, 112.06 -0.94 M-1.35 135.11 C29.87 99.61, 63.16 60.1, 116.27 0.76 M-0.21 133.7 C44.1 83.71, 88.25 33.46, 116.32 -0.33 M-1.87 140.09 C24.64 110.44, 53.36 80.31, 122.84 0.79 M-0.68 139.71 C47.03 84.1, 95.24 28.81, 121.25 0.32 M2.02 146.54 C46.39 92.43, 93.45 38.21, 127.71 -1.43 M0.71 146.28 C49.29 89.78, 96.44 36.13, 127.18 0.03 M-1.59 153.44 C49.05 99.74, 95.47 45.25, 133.53 -0.35 M-0.64 153.12 C43.01 104.04, 84.52 55.43, 132.69 0.55 M1.19 159.32 C49.11 100.55, 99.79 44.83, 137.47 0.02 M-0.52 158.36 C51.71 96.25, 105.61 36.04, 137.94 1.01 M-0.14 164.73 C44.22 115.46, 86.59 62.41, 144.03 1.16 M-0.56 164.16 C50.1 106.41, 101.83 47.26, 142.67 0.1 M-1.38 172.16 C32.35 137.31, 61.84 99.39, 146.73 1.9 M-0.58 170.6 C35.05 129.96, 71.31 88.52, 148.68 0.42 M0.12 174.92 C52.84 115.61, 107.15 53.1, 154.95 0.65 M-0.51 176.2 C56.36 111.19, 110.8 47.56, 153.35 -0.59 M1.23 184.51 C62.51 110.17, 128.08 40.9, 158.48 -1.13 M-0.04 182.48 C61.13 113.14, 122.61 41.64, 158.68 0.86 M-1.43 189.15 C34 151.83, 69.55 112.17, 164.2 -0.79 M-0.29 189.11 C57.12 121.91, 115.32 56.18, 165.04 -0.81 M0.3 193.91 C53.51 130.71, 108.85 68.26, 167.93 -0.75 M-0.27 194.82 C55.52 130.31, 110.33 67.51, 169.87 0.82 M-1.35 200.48 C37.51 161.31, 73.86 119.46, 173.67 -0.34 M-0.1 201.69 C44.3 149.4, 87.64 100.34, 175 0.33 M1.15 206.23 C54.6 144.88, 110.84 83.14, 179.22 1.25 M0.76 207.03 C67.38 126.76, 135.03 48.69, 180.17 0.04 M0.59 214.33 C57.02 151.81, 108.92 88.99, 185.51 0.09 M0.48 212.91 C61.2 141.69, 122.24 71.27, 185.54 -0.72 M-0.72 220.06 C67.7 141.75, 137.91 62.36, 191.92 0.5 M-0.23 219.61 C61.65 149.63, 121.75 79.86, 190.13 0.8 M1.2 226.15 C45.46 174.83, 88.45 121.57, 196.21 0.56 M0.32 225.17 C76.35 136.58, 154.42 46.27, 195.82 -0.89 M-1.04 230.79 C46.1 176, 93.67 121.31, 201.83 -0.75 M0.25 231.08 C66.47 156.02, 131.47 79.86, 201.08 0.27 M-0.33 237.89 C78.99 146.85, 158.87 55.48, 206.05 -0.1 M0.67 237.23 C80.48 144.81, 160.59 52.17, 206.66 -0.13 M-0.21 243.68 C82.91 147.74, 167.22 53.37, 212.78 -0.34 M-0.63 243.87 C51.44 184.65, 103.4 125.44, 212.18 -0.29 M-0.8 249.5 C79 160.04, 159.21 71.74, 218.47 -1.29 M0 249.7 C81.51 157.02, 163.36 62.66, 217.51 -0.89 M-0.27 256.12 C46.12 202.75, 93.18 149.16, 221.81 1.12 M0.72 255.61 C75.03 171.23, 147.03 87.08, 222.14 -0.21 M0.93 261.59 C81.51 166.05, 164.38 72.15, 229.01 -0.98 M-0.34 261.84 C83.72 167.02, 166.95 71.27, 227.97 0.22 M0.1 267.36 C88.19 168.05, 175.15 67.97, 233.3 0.72 M-0.27 268.36 C66.42 192.26, 132.34 115.55, 233.16 -0.64 M0.68 274.4 C51.09 216.56, 102.06 157.41, 238.66 -0.27 M-0.28 274.64 C70.21 192.17, 141.64 110.1, 238.43 0.73 M-0.73 281.39 C69.44 199.65, 139.75 117.25, 242.75 1.1 M-0.62 281.13 C59.18 212.39, 119.35 143.18, 244.15 -0.5 M-0.47 285.27 C85.98 186.81, 173.11 89.51, 248.14 -0.87 M0.32 286.67 C65.48 213.94, 128.52 141.24, 248.76 0.26 M0.54 293.75 C70.5 207.92, 144.49 126.9, 254.99 -0.01 M-0.57 292.33 C95.5 181.08, 192.71 70.35, 254.85 -0.45 M-0.06 299.07 C57.31 231.17, 115.36 164.11, 259.04 -0.81 M-0.09 298.68 C61.85 225.92, 125.05 153.77, 259.49 0.69 M0.77 304 C103.83 186.39, 206.99 67.08, 264.36 0.16 M0.24 305.09 C76.58 217.18, 152.05 130.07, 264.58 -0.27 M0.38 311.96 C86.72 212.56, 172.07 112.35, 269.16 -0.06 M-0.61 311.69 C54.78 248.34, 110.66 185.74, 270.59 -0.13 M0.42 316.71 C97.83 201.22, 196.85 88.99, 276.14 -0.21 M0.6 317.29 C53.98 252.47, 109.38 188.35, 275.54 -0.15 M0.73 322.99 C86.35 224.44, 172.3 125.28, 279.93 2.05 M-0.13 323.03 C61.08 251.64, 122.75 181.63, 279.77 1.88 M0.22 328.64 C74.28 242.8, 149.19 156.74, 279.32 7.12 M0.61 329.39 C109.94 200.1, 221.55 72.09, 279.49 6.96 M0.52 335.57 C84.01 240.37, 166.3 144.16, 280.12 13 M0.11 335.13 C85.81 237.07, 170.74 139.99, 279.39 14.11 M0.53 340.92 C80.42 248.11, 160.94 154.26, 280.02 19.9 M-0.25 341.67 C106.34 218.6, 213.17 95.39, 280.22 19.31 M1.21 348.23 C56.68 280.9, 114.26 215.96, 280.23 26 M0.15 347.2 C55.89 283.3, 112.57 218.57, 279.94 25.65 M-0.14 353.58 C92.47 246.3, 185.15 138.15, 280.1 33.24 M-0.48 353.36 C81.28 258.57, 162.99 164.26, 279.62 31.94 M-0.6 359.72 C101.94 242.5, 202.89 125.94, 279.78 37.64 M0.64 359.16 C112.78 232.02, 222.59 104.78, 279.68 37.35 M-0.68 365.95 C57.87 298.2, 119.12 227.31, 278.73 44.67 M-0.43 366.15 C86.38 269.14, 171.02 171.89, 279.26 43.88 M0.81 371.79 C91.19 269.67, 181.01 166.64, 280.76 49.92 M0.06 372.38 C84.98 273.36, 170.29 175.25, 280.08 50.25 M2.34 376.27 C75.72 290.71, 147.49 207.41, 278.75 56.22 M1.57 376.49 C65.16 305.33, 128.3 233.79, 279.36 56.11 M7.13 375.79 C70.89 302.17, 136.81 225.65, 278.55 62.62 M6.69 376.32 C81.57 290.41, 157.31 203.94, 278.91 63.22 M13.02 376.49 C97.27 276.48, 183.01 176.68, 280.91 69.42 M11.73 376.63 C89.87 283.84, 169.15 192.51, 279.28 68.52 M18.85 376.27 C97.92 282.61, 177.03 192.65, 279.34 74.43 M17.35 376.16 C120.8 255.18, 224.93 135.09, 279.12 75.08 M22.8 377.35 C114.02 270.32, 206.94 163.93, 280.93 79.33 M22.48 376.49 C124.84 257.14, 228.13 139.56, 280.13 80.63 M28.39 376.36 C103.41 289.62, 180.26 203.07, 279.15 87.73 M28.79 376.36 C101.51 292.83, 173.81 210.18, 279.76 87.12 M32.82 375.59 C95.99 307.43, 156 237.84, 279.5 93.15 M33.4 376.71 C91.08 308.54, 151.85 240.04, 279.66 93.41 M39.75 375.48 C99.42 307.45, 159.98 236.71, 279.42 98.42 M39.23 376.09 C109.57 291.6, 180.82 208.9, 279.3 98.97 M44.91 376.44 C136.06 271.93, 225.24 168.18, 278.67 104.56 M44.09 375.75 C131.65 274.96, 218.73 173.24, 279.25 105.21 M49.08 375.75 C138.69 275.03, 225.4 175.56, 279.73 110.91 M49.94 375.21 C123.4 291.32, 197.58 205.84, 279.93 110.44 M53.71 377.03 C117.93 304.67, 181.09 231.21, 280.51 116.77 M54.18 376.01 C140.07 278.93, 223.58 182.14, 279.13 117.51 M59.01 374.48 C129.78 295.58, 199.86 213.55, 279.36 124.66 M60.5 375.87 C143.99 281.5, 225.27 185.58, 279.64 123.61 M64.42 375.56 C141.18 288.8, 219.2 202.39, 279 130.12 M64.73 376.37 C117.44 315.29, 171.7 252.36, 279.74 129.32 M71.78 374.34 C141.58 295.09, 212.73 212.72, 280.05 135.38 M71.21 375.86 C115.98 320.82, 162.91 268.15, 279.62 135.97 M75.03 377.32 C149.17 293.56, 222.43 209.59, 280.47 142.35 M75.64 375.8 C129.39 314.87, 183.2 251.85, 279.57 141.89 M80.17 375.79 C144.22 305.91, 205.45 236.06, 279.21 148.17 M81.82 375.06 C151.14 296.7, 220.17 217.67, 279.26 147.34 M86.69 375.32 C150.34 303.28, 214.68 228.21, 278.8 154.8 M86.93 376.32 C143.2 310.03, 199.14 245.9, 280.02 153.94 M93.08 376.52 C152.46 307.72, 208.38 239.2, 281.21 160.73 M92.9 375.88 C165.87 290.71, 237.48 209, 280.19 159.96 M98.14 375.57 C145.67 321.74, 194.12 266.05, 280.27 166.87 M97.17 375.9 C143.01 324.3, 190.14 270.8, 279.52 165.76 M104.01 374.1 C151.66 324.91, 196.72 271.79, 279.03 172.18 M102.9 375.84 C154.32 316.87, 204.49 258.02, 279.74 171.93 M108.51 377.29 C149.86 329.16, 188.39 282.16, 279.33 177.46 M108.06 375.67 C160.36 316.28, 212 257.89, 279.79 178.04 M113.51 376.55 C156.58 324.98, 201.55 273.14, 280.79 184.18 M113.54 375.59 C170.72 308.88, 229.08 241.24, 279.16 185.39 M117.34 374.85 C157.48 329.15, 195.66 283.31, 279.17 191.28 M118.38 375.58 C154.17 335.6, 189.57 296.27, 279.59 190.16 M123.2 377.46 C166.18 323.86, 211.83 274.58, 278.25 198.19 M123.15 376.32 C154.59 338.31, 187.37 301.46, 278.74 197.31 M128.14 377.45 C162.96 338.82, 193.24 299.74, 278.95 203.74 M128.54 375.85 C163.52 335.42, 196.86 296.65, 280.17 202.58 M135.08 375.75 C169.39 333.77, 206.58 292.99, 281.29 209.94 M133.83 376.05 C165.73 339.32, 197.36 303.84, 280.24 208.78 M138.47 376.5 C195.28 315.62, 248.71 252.36, 279.38 214.16 M139.19 375.26 C193.25 315.69, 246.65 253.44, 279.8 214.21 M143.88 376.77 C191.12 325.84, 233.38 273.23, 281 219.37 M144.41 376.48 C180.9 332.2, 218.34 288.59, 279.41 220.47 M149.74 375.15 C189.42 332.65, 225.44 284.97, 278.41 226.96 M151.26 376.45 C200.42 318.51, 248.85 262.44, 279.63 226.23 M157.27 375.78 C193.32 330.63, 230.82 288.74, 278.92 232.21 M154.56 375.16 C182.82 345.79, 208.99 313.27, 280.85 233.51 M160.65 375.64 C185.32 346, 212.06 315.58, 278.19 238.67 M161.93 374.93 C201.32 328.08, 243.53 281.12, 279.88 238.39 M166.92 375.4 C208.38 325.62, 256.31 274.26, 281.01 246.7 M165.23 376.66 C191.39 349.42, 215.18 319.94, 279.46 246.26 M170.08 374.63 C208.79 333.21, 245.11 292.35, 280.33 252.65 M172.33 376.24 C194.73 347.55, 219.06 319.21, 280.76 250.47 M174.63 374.93 C218.32 332.12, 258.24 284.09, 280.2 256.31 M176.42 377.05 C212.25 335.13, 250.11 291.41, 280 257.02 M181.76 375 C214.24 335.3, 248.85 296.31, 281.19 264.68 M181.82 376.34 C205.33 351.38, 225.43 326.35, 279.59 263.73 M188.96 377.88 C218.12 340.79, 247.4 308.78, 280.02 271.22 M187.3 375.71 C213.1 345.33, 240.33 314.8, 279.45 268.72 M192.12 373.94 C215.56 351.19, 237.16 326.27, 279.1 275.61 M191.9 375.52 C223.23 340.07, 254.32 305.48, 280.17 275.54 M197.18 376.12 C218.01 351.25, 240.04 329.6, 281.33 283.19 M198.23 375.36 C228.06 341.27, 257.5 306.01, 279.61 281.88 M202.26 374.95 C232.02 342.5, 263.32 309.99, 281.08 288.33 M204.27 376.44 C225.44 350.95, 248.8 324.1, 279.45 288.31 M209.25 377.79 C223.48 356.81, 240.91 340.4, 281.65 294.28 M208.71 376.08 C230.5 349.66, 254.4 323.99, 280.43 293.37 M213.97 375.84 C237.54 344.64, 265.98 315.32, 278.88 300.32 M214.74 376.1 C236.03 350.73, 257.43 324.35, 279.56 300.1 M217.8 375.36 C238.55 351.22, 257.44 327.58, 278.59 305.62 M219.38 375.28 C241 349.93, 262.82 325.9, 279.36 307.16 M225.75 376.74 C238.6 360.47, 250.89 346.09, 279.55 312.61 M225.3 375.81 C234.97 363.57, 246.18 350.85, 280.42 311.54 M230.16 377.63 C243.19 360.59, 257.1 345.11, 280.36 318.39 M230.08 375.72 C242.42 359.3, 257.1 343.34, 279.99 319.29 M236.11 376.83 C250.69 354.71, 267.76 337.28, 280.88 322.54 M235.43 376.03 C246.43 362.41, 258.01 350.19, 279.14 324.61 M240.35 377.67 C253.44 363.54, 266.13 347.25, 277.92 330.34 M239.76 375.5 C254.62 358.53, 269.53 341.99, 280.07 330.4 M246.21 375.37 C255.2 365.32, 260.28 357.74, 278.66 336.54 M244.75 375.26 C256.55 364.2, 267.59 350.61, 279.3 337.38 M249.06 376.91 C257.77 368.58, 263.56 362.26, 279.57 340.79 M250.54 376.05 C259.02 367.85, 267.12 358.63, 280.2 342.75 M255.95 376.17 C261.34 368.99, 271.4 359.6, 281.33 347.05 M255.05 376.63 C265.01 365.2, 275.09 353.38, 279.63 349 M259.7 377.05 C268.63 370.7, 273.36 364.47, 278.29 355.37 M261.72 376.18 C267.56 368.61, 274.9 359.38, 279.1 354.93 M266.56 376.61 C273.14 372.39, 277.61 362.91, 278.07 361.11 M266.94 376.84 C271.71 371.31, 275.64 365.32, 280.04 360.23 M271.19 375.98 C274.89 372.2, 275.89 370.58, 279.26 367.09 M271.96 375.91 C274.97 372.55, 278.1 369.84, 279.21 367 M0.31 374.61 C0.31 374.61, 0.31 374.61, 0.31 374.61 M0.31 374.61 C0.31 374.61, 0.31 374.61, 0.31 374.61 M5.49 374.52 C4.35 372.85, 2.36 370.82, -0.87 369.05 M5.67 373.93 C4.14 372.27, 1.95 371.1, 0.19 368.98 M11.47 375.56 C7.87 371.2, 7.02 367.99, -0.91 365.13 M13.03 374.67 C8.9 371.06, 6.09 368.83, -0.43 363.29 M17.8 375.2 C10.97 371.19, 7.64 365.7, 0.5 358.33 M18.27 374.41 C14.08 371.66, 10.51 367.2, -0.38 358.9 M24.15 374.45 C17.79 367.85, 9.24 362.41, -0.59 352.3 M24.5 375.07 C18.48 367.92, 12.35 363.63, 0.79 354.01 M29.92 374.99 C23.33 365.67, 15.22 359.53, -1.09 349.24 M31.12 374.15 C21.69 366.19, 10.84 357.61, -0.09 348.41 M37.74 373.35 C27.42 366.57, 18.35 358.66, 0.29 342.98 M37.39 374.54 C22.55 362.05, 8.58 349.43, 0.08 341.99 M44.45 376.31 C26.74 362.39, 15.11 350.87, 1.62 335.1 M43.37 374.9 C27.04 362.05, 12.9 349.42, -1 337.82 M48.67 373.44 C36.91 363.89, 25.68 353.83, 0.67 333.32 M49.26 373.56 C35.33 362.11, 23.47 351.44, -0.4 331.77 M53.69 375.43 C36.23 357.94, 15.53 340.33, 1.74 327.4 M53.98 374.17 C43.5 364.93, 29.41 353.84, 0.55 325.78 M63.07 374.65 C48.93 360.31, 33.79 349.44, -1.47 319.47 M60.42 375.56 C39.12 355.42, 17.47 337.46, 0.86 321.44 M67.81 372.25 C42.71 353.95, 16.39 330.19, 1.06 315.96 M66.33 374.16 C47.86 356.77, 28.1 340.69, 0.4 315.28 M73.47 373.22 C58.79 358.63, 40.08 348, -1.5 309.91 M73.07 374.35 C44.85 349.22, 16.01 325.27, 0.5 310.4 M79.72 374.98 C60.73 356.77, 39.56 340.12, -1.94 304.9 M78.95 374.4 C48.13 347.99, 16.53 320.04, 0.52 305.66 M83.35 373.69 C52.72 345.31, 18.93 319.32, -0.1 301.4 M85.8 374.05 C60.62 351.79, 36.26 329.08, 0.35 299.4 M89.75 372.81 C64.43 353.3, 40.84 328.88, -0.07 292.66 M92.28 374.43 C62.87 350.36, 32.75 323.62, -0.95 294.6 M96.14 374.23 C59.57 343.31, 25.62 310.7, 0.75 291.05 M96.65 374.45 C71.14 353.52, 47.19 330.99, -0.63 290.56 M102.65 373.29 C66.02 342.49, 30.96 312.55, -1.49 283.99 M103.66 375.18 C61.47 339.79, 20.5 303.84, 0.31 284.12 M107.95 375.36 C70 339.39, 31.07 304.34, 1.76 280.27 M109.78 373.71 C78.57 347.6, 49.73 321.13, -0.31 279.31 M116.13 374.22 C73.45 337.56, 33.36 302.17, -0.89 274.61 M115.85 374.85 C87.06 347.72, 55.36 320.82, -0.52 273.24 M120.33 376.55 C88.99 345.98, 56.32 320.53, -1.69 266.77 M122.28 374.97 C96.84 353.3, 71.01 331.66, 0.59 268.45 M129.83 373.06 C96.08 345.85, 60.54 318.22, 1.44 264.59 M127.99 374.38 C88.58 340.98, 48 307.49, -0.32 263.36 M133.24 373.6 C98.27 343.86, 64.69 314.19, 0.48 256.59 M135.13 373.76 C88.91 336.69, 43.97 298.85, 0.5 258.1 M138.07 375.62 C89.67 329.68, 35.72 283.56, 0.2 254.27 M140.41 374.01 C101.85 342.79, 66.06 309.46, 0.43 252.2 M145.63 374.61 C103.15 334.94, 55.77 298.08, 1.03 248.07 M145.71 373.91 C95.03 327.87, 40.47 281.67, -0.97 247.75 M154.43 372.82 C113.38 341.92, 73.49 306.34, 1.8 241.69 M153.26 374.06 C95.28 324.25, 36.58 273.84, 0.6 241.23 M160.1 373.43 C122.54 347.07, 89.89 316.13, -0.53 235.93 M158.77 374.86 C118.32 340.47, 80.88 305.59, -0.97 236.23 M165.57 373.34 C114.44 330.43, 63.11 286.35, 1.83 231.1 M163.97 374.04 C122.15 338.09, 79.9 301.36, -0.49 231.87 M169.13 373.87 C110.41 322.73, 48.9 270.22, 1.5 226.78 M169.57 374.63 C107.4 318.75, 43.41 263.12, 0.04 225.66 M178.15 372.92 C127.39 332.13, 74.9 287.94, 0.43 221.04 M176.57 374.81 C138.05 340.51, 99.56 307.08, -0.02 220.69 M184.15 375.05 C111 311.41, 37.04 246.36, 0.75 216.36 M183.35 374.21 C118.97 318.92, 54.6 263.11, -0.4 215.49 M189.67 374.11 C151.08 337.15, 107.75 303.96, 1.54 208.97 M188.4 374.36 C130.76 324.37, 72.04 273.37, -0.25 209.84 M194.3 373 C130.27 316.54, 66.29 261.19, 0.3 204.45 M194.61 374.41 C148.7 335.59, 101.39 295.34, -0.36 204.75 M200.02 373.09 C139.63 321.6, 80.35 270.47, -0.32 200.8 M201.17 373.57 C133.1 315.51, 64.99 256.8, 0.09 199.9 M208.15 374.05 C150.56 328.88, 96.07 279.56, -1.27 194.22 M206.92 374.9 C142 314.96, 74.39 256.76, -0.39 193.66 M215.01 373.52 C129.15 301.63, 43.48 227.11, -0.25 188.2 M213.45 374.9 C162.12 330.29, 110.83 287.38, 0.74 188.59 M218.09 372.9 C171.95 335.09, 128.54 295.08, -0.18 182.7 M219.86 373.6 C149.39 311.61, 78.98 249.68, -0.08 183.39 M224.75 373.98 C148.75 306.44, 70.25 241.74, 0.64 177.4 M225.63 375.17 C166.91 323.78, 108.2 272.83, 0.07 178.59 M232.45 375.27 C164.44 317.78, 97.18 258.85, 0.09 173.27 M231.72 374.72 C139.18 293.38, 47.46 213.11, 0.32 173.07 M238.84 375.26 C188.45 331.11, 138.51 289.42, -1 166.94 M238.08 374.38 C187.52 330.72, 138.39 287.23, -0.34 168.2 M242.93 374.44 C152.83 292.57, 60.74 214.29, -0.81 161.4 M244.7 374.44 C164.05 304.42, 83.42 234, 0.73 162.11 M250.34 374.94 C183.38 312.77, 113.18 254.31, 0.65 157.12 M249.91 374.25 C195.31 328, 142.89 281.98, -0.4 157.56 M256.8 375.04 C200.07 324.2, 143.21 274.92, -0.87 152.25 M255.92 374.53 C165.28 296.08, 75.74 218.02, -0.26 151.73 M262.95 373.78 C196.71 318.66, 133.49 264.41, 0.49 147.09 M262.4 374.49 C173.77 298.35, 84.08 220.31, 0.07 147.03 M267.32 374.01 C182.3 300.38, 99.97 227.32, 0.26 141.89 M267.69 374.64 C183.02 299.87, 98.65 226.08, 0.2 141.76 M274.7 373.33 C212.56 318.56, 148.15 265.28, -0.34 135.07 M274.38 375.12 C166.28 279.44, 58.15 185.42, 0.04 135.86 M279.36 373.21 C209.52 314, 141.28 254.43, 1.41 131.56 M278.65 372.81 C190.1 294.64, 101.49 217.75, -0.33 131.08 M278.28 369.05 C179.27 280.81, 80.07 193.88, -0.46 125.78 M279.46 367.32 C193.54 295.31, 108.42 221.27, -0.02 124.83 M277.79 361.74 C186.63 281.18, 94.77 201.52, 0.81 120.11 M278.79 362.01 C198.37 292.79, 119.03 224.05, 0.34 120.72 M278.17 357.93 C172.82 263.99, 68 174.48, -0.61 115.3 M278.5 356.65 C183.26 273.91, 87.07 189.5, 0.36 114.85 M278.38 352.84 C170.05 256.23, 59.48 158.26, 0.76 109.03 M279.87 351.85 C175.3 259.89, 70.08 168.09, 0.11 110.03 M278.87 347.71 C210.69 284.43, 143.34 225.79, -1.07 103.68 M278.82 346.47 C189.62 268.27, 100.98 190.59, -0.69 103.37 M279.46 342.61 C171.08 247.63, 62.67 155.24, 0.27 99.98 M279.64 341.02 C167.84 244.41, 58.31 148.7, 0.08 99.19 M279.54 334.98 C184.74 252.02, 88.2 168.74, 0.77 92.39 M278.96 335.82 C176.55 248.64, 75.74 160.77, -0.02 92.98 M279.65 330.55 C177.25 243.92, 75.99 155.89, -0.01 87.43 M279.49 331.6 C178.52 242.51, 77.56 155.55, -0.39 87.97 M278.53 326.4 C203.84 262.11, 131.78 198.87, 0.54 81.85 M279.43 325.76 C180.23 241.45, 82.82 156.33, -0.55 82.79 M279.65 319.4 C197.37 246.78, 114.92 173.46, -0.21 78.39 M278.86 320.32 C181.32 236.56, 84.28 152.06, -0.01 78.2 M278.32 314 C220.72 263.03, 164.17 211.56, -0.76 71.44 M278.97 314.51 C199.72 244.52, 119.61 175.41, -0.18 72.13 M278.14 310.87 C201.62 239.61, 120.33 171.17, 1.17 67.7 M279.81 310.27 C209.14 247.59, 139.55 187.28, -0.49 66.39 M278.11 304.82 C223.1 255.73, 163.17 203.28, 0.74 61.97 M279.52 303.58 C191.65 226.31, 104.19 149.86, -0.38 61.75 M279.17 298.19 C187.44 220.87, 97.49 141.6, -0.09 55.35 M279.52 298.6 C222.46 251.02, 165.93 200.98, -0.33 56.02 M278.75 293.76 C197.78 221.07, 114.84 147.84, -0.5 50.75 M278.78 294.07 C190.94 217.12, 102.78 140.93, -0.1 50.18 M279.79 288.4 C182.89 204.54, 84.85 119.54, 0.83 46.45 M278.99 288.83 C174.14 198.33, 69.36 107.46, 0.19 45.25 M277.83 283.3 C188.15 203.06, 95.08 123.48, 0.99 39.62 M278.86 282.99 C197.33 213.16, 117.12 142.71, 0.12 40.48 M279.95 277.59 C171.56 185.85, 65.11 91.68, 0.55 33.95 M279.3 277.29 C175.7 187.38, 73.04 99.1, 0.29 35.53 M279.52 271.17 C171.63 180.47, 66.48 89, 1.46 29.91 M278.91 271.85 C170.05 179.56, 63.57 85.73, 0.03 30.28 M280.03 268.23 C169.59 174.07, 61.03 78.03, -0.19 23.37 M279.18 266.7 C218.13 217.16, 157.71 164.63, -0.12 24.2 M279.77 262.74 C188.05 180.2, 94.97 100.31, -0.16 18.91 M278.77 261.78 C200.31 194.35, 122.71 127.37, 0.52 19.39 M278.36 256.82 C212.99 201.9, 147.43 143.75, 1.01 12.97 M278.68 256.27 C168.87 162.23, 59.87 67.19, -0.4 14.38 M278.68 251.19 C198.53 181.17, 118.67 111.72, -0.34 9.62 M279 251.03 C168.99 155.19, 60.61 59.87, 0.57 8.4 M278.63 246.21 C195.89 174.87, 112.03 100.39, 0.8 3.7 M279.16 245.45 C221.07 197.23, 165.38 147.42, -0.42 3.83 M277.99 239.77 C178.91 153.36, 77.64 66.27, 0.72 -0.26 M278.4 239.91 C204.79 177.88, 131.86 113.82, 1.26 -1.24 M280.05 235.76 C199.89 166.97, 122.14 99.79, 7.52 -1.69 M279.66 235.11 C173.98 142.51, 69.24 51.58, 6.93 -1.07 M279.39 230.14 C201.71 162.93, 124.35 97.2, 13.02 -0.6 M279.72 230.22 C178.16 143.3, 75.72 53.94, 13.59 -1.8 M279.73 223.66 C222.57 174.62, 167.12 126.97, 20.65 -2.03 M279.25 225.15 C196.32 152.06, 113.57 80.78, 18.96 -1.03 M278.99 219.69 C222.21 171.38, 167.51 122.32, 25.12 -1.44 M279.18 220.2 C188.32 140.98, 97.16 62.73, 25.47 -1.88 M280.21 214.91 C226.39 166.72, 172.87 119.77, 32.21 -2.16 M279.67 214.34 C229.05 171.21, 177 127.17, 30.93 -0.95 M279.44 207.82 C204.31 143.31, 126.2 76.91, 38.09 -0.69 M279.84 209.53 C193.74 135.38, 110.97 62.82, 38.3 -0.53 M279.28 202.7 C201.51 136.57, 124.81 68.8, 42.94 -0.09 M278.77 202.91 C209.49 145.4, 140.83 84.84, 43.4 -1.02 M279.08 199.11 C196.03 126.11, 111.8 53.14, 51.28 -2.14 M279.44 198.03 C226.16 151.52, 173.24 106.21, 49.97 -1.36 M277.81 192.66 C206.74 128.83, 135.97 66.52, 55.73 -2.16 M278.64 192.84 C222.29 143.94, 165.56 94.04, 54.94 -1.9 M278.01 187.02 C202.18 121.49, 129.04 57.82, 60.93 -0.22 M279.26 188.04 C229.3 145.26, 179.7 100.84, 62.15 -1.64 M277.38 180.84 C222.92 133.07, 164.52 80.69, 67.51 0.59 M278.74 182.13 C236.85 145.67, 192.51 107.78, 68.59 -1.16 M278.47 176.77 C221.36 124.64, 165.15 74.94, 74.88 0.03 M278.53 177.06 C218.83 123.84, 157.82 70.47, 74.49 -1.78 M280.32 170.87 C204.79 107.06, 133.6 43.82, 80.86 -2.48 M278.55 171.86 C219.91 121.82, 162.48 71.97, 80.03 -1.76 M278.71 168.12 C202.65 99.27, 123.69 34.66, 86.51 -2.08 M278.95 166.53 C216.73 110.48, 155.67 57.35, 86.69 -2.01 M279.99 162.22 C217.25 108.32, 156.73 55.46, 93.55 -1.35 M279.26 160.33 C224.68 112.55, 169.98 64.94, 92.69 -0.54 M278.99 154.38 C219.94 101.72, 158.52 50.77, 99.6 -1.4 M278.39 155.87 C219.65 103.71, 160.9 52.27, 99.28 -1.64 M279.59 149.46 C214.53 95.27, 146.35 35.98, 104.45 -2.1 M278.96 150.93 C239.99 116.22, 202.15 84.02, 103.8 -2.01 M278.45 145.45 C219.86 92.1, 163.2 42.56, 109.8 -2.45 M278.88 145.59 C232.01 104.84, 187.56 64.32, 110.66 -1.63 M279.85 138.95 C237.07 104.49, 196.17 67.04, 118.18 -0.82 M279.13 139.09 C224.55 92.73, 171.39 46.52, 116.49 -1.34 M278.52 135.07 C231.6 91.71, 181.65 49.57, 122.36 -2.63 M278.41 133.89 C242.37 101.3, 204.05 67.02, 123.38 -0.65 M278.62 129.21 C247.93 100.17, 217.59 75.37, 128.59 0.74 M277.89 128.97 C233.77 89.15, 189.96 50.72, 128.84 -0.15 M279.68 123.71 C231.71 84.03, 186.9 42.39, 135.72 -1.28 M279.48 123.62 C241.3 91.3, 202.14 57.43, 134.05 -1.27 M278.57 117.4 C249.72 95.17, 220.76 66.85, 140.27 -1.84 M279.95 118.77 C246.57 89.11, 210.8 59.05, 141.29 -1.41 M277.12 112.3 C242.21 82.99, 206.21 49.19, 148.6 -3.13 M278.23 113.76 C239.77 78.61, 197.79 44.21, 146.85 -2.36 M281.25 108.81 C233.17 71.28, 187.36 28.52, 151.74 -2.22 M280.15 108.67 C236.32 72.29, 195.09 35.27, 153.79 -0.6 M280.52 102.22 C243.71 74.08, 208.44 41.42, 161.03 -2.47 M279.69 102.18 C248.47 77.11, 217.56 49.99, 159.14 -1.42 M279.04 97.09 C249.03 69.61, 219.86 44.07, 167.2 -2.49 M279.64 97.22 C241.77 64.71, 204.43 32.28, 164.75 -0.52 M278.33 91.13 C245.77 62.19, 210.57 33.67, 171.55 -1.03 M278.09 92.2 C242.69 60.09, 205.86 27.69, 172.11 -1.64 M280.22 85.56 C257.24 66.22, 236.03 46.29, 177.54 -0.44 M279.02 86.66 C250.09 63.26, 223.88 39.31, 177.67 -0.65 M277.69 81 C249.34 56.71, 222.98 31.57, 185.66 -0.3 M278.85 82.49 C247.53 54.85, 216.03 28, 183.38 -1.91 M277.79 75.84 C252.31 54.03, 227.34 30.56, 189.08 -0.88 M279.02 75.58 C260.51 60.84, 241.68 44.94, 190.02 -0.43 M280.44 70.11 C247.5 44.54, 213.73 14.45, 196.77 -0.08 M278.52 71.05 C252.98 46.65, 225.84 24.25, 195.97 -1.43 M277.4 67.87 C250.49 39.38, 220.68 14.36, 200.6 -2.28 M278.52 66.9 C262.37 50.24, 244.7 36.26, 202.11 -1.96 M279.08 61.06 C249.43 35.03, 224.33 12.87, 206.98 -1.86 M278.84 61.23 C255.71 41.08, 232.12 19.31, 207.04 -1.04 M277.44 55.91 C264.35 44.56, 253.75 31.49, 215.78 -0.82 M278.58 55.9 C261.78 40.81, 245.24 25.51, 213.71 -2 M280.82 48.76 C263.28 34.58, 242.33 20.44, 219.86 -0.19 M278.66 49.73 C259.34 32.91, 239.33 15.1, 220.68 -0.61 M280.92 44.5 C262.66 29.89, 245.8 15.54, 228.28 -1.03 M278.4 44.19 C265.14 31.67, 251.22 20.8, 226.98 -0.66 M279.55 40.42 C261.88 25.35, 247.08 11.13, 233.38 -1.24 M278.03 38.58 C266.83 28.91, 254.84 17.09, 232.87 -1.6 M279.6 32.54 C270.65 25.31, 258.77 18.52, 238.41 -3.13 M279.33 33.73 C270.4 26.97, 261.69 19.26, 239.22 -0.66 M279.85 27.57 C269.38 19.69, 259.59 12.23, 244.45 -2.93 M278.13 29.18 C269.24 20.07, 257.75 10.58, 244 -1.18 M277.89 25.21 C269.61 15.98, 258.41 5.98, 249.96 -2.37 M278.9 22.84 C269.03 15.53, 259.46 5.82, 251.66 -0.76 M276.97 18.07 C274.52 14.94, 266.2 6.5, 257.95 -1.5 M279.31 18.24 C273.73 12, 267.57 9.01, 255.87 -0.83 M280.9 14.01 C271.08 9.13, 265.21 2.05, 263.11 0.35 M278.78 12.15 C274.01 7.81, 267.35 3.03, 262.42 -0.31 M278.18 8.43 C278.03 6.42, 273.69 2.78, 267.85 -2.44 M279.71 8.27 C275.22 4.82, 271.62 0.94, 268.57 -1.61 M278.9 1.78 C278.56 1.38, 277.45 0.23, 275.21 -1.27 M278.99 2.26 C278.01 1.18, 276.99 0.17, 275.22 -1.21" stroke="#bae6fd" stroke-width="0.5" fill="none"></path><path d="M-0.44 -0.47 C110.11 1.32, 218.74 0.33, 276.54 -0.93 M0.07 0.06 C96.96 -1.96, 193.87 -2.35, 277.7 -0.09 M277.14 -0.13 C275.43 105.79, 275.7 212.7, 278.57 374.16 M278.6 0.13 C280.09 146.29, 279.84 294.07, 277.74 374.92 M276.54 375.04 C183.49 376.85, 89.73 377.24, 0.48 375.02 M278.11 374.28 C190.67 373.54, 104.06 372.92, 0.21 374.75 M1.05 373.69 C-2.13 264.95, -0.98 156.25, 0.31 0.45 M0.1 374.36 C-1.43 230.98, -0.64 89.1, -0.35 0.02" stroke="#000000" stroke-width="1" fill="none"></path></g><g stroke-linecap="round"><g transform="translate(406.5899509252158 162.13301033375546) rotate(0 1.4737866767187597 189.81928636501362)"><path d="M0.43 1.03 C0.72 143.54, 2.12 284.91, 3.35 379.24 M-0.41 0.38 C0.41 110.46, 1.02 219.88, 3.03 379.26" stroke="#000000" stroke-width="4" fill="none"></path></g></g><mask></mask><g stroke-linecap="round"><g transform="translate(267.812173147438 350.2441214448668) rotate(0 141.80509950708085 0.2260074983037157)"><path d="M0.54 1.33 C57.8 0.99, 115.58 1.74, 283.67 0.55 M-0.06 0.04 C92.81 -2.07, 183.65 -1.24, 283.35 1.59" stroke="#000000" stroke-width="4" fill="none"></path></g></g><mask></mask><g stroke-linecap="round"><g transform="translate(268.5899509252158 541.1330103337555) rotate(0 129.73740565895895 37.0824313037233)" fill-rule="evenodd"><path d="M0 0 C0 0, 0 0, 0 0 M0 0 C0 0, 0 0, 0 0 M-12.04 19.69 C-8.78 14.85, -2.37 9.6, 3.6 -1.17 M-12 19.89 C-8.18 15.01, -2.46 8.33, 4.13 0 M-19.33 36.41 C-12.26 25.17, -5.99 17.93, 12.3 1.69 M-20.07 35.54 C-8.8 21.65, 0.97 9.68, 10.55 0.95 M-21.8 41.65 C-12.4 32.74, -4.86 22.98, 17.61 1.9 M-20.57 40.84 C-9.57 30.47, -0.33 18.42, 14.97 0.37 M-20.65 47.46 C-7.2 35.46, 1.03 22.51, 23.09 1.24 M-20.16 48.32 C-8.69 34.83, 2.9 23.55, 21.94 -0.9 M-22.11 54.09 C-8.11 38.94, 5 26.48, 25.95 -1.58 M-20.61 53.07 C-9.84 41.76, -0.43 29.12, 26.77 0.97 M-19.11 58.71 C-6.44 45.49, 3.3 32.09, 30.56 0.9 M-20.84 60.71 C-5.95 43.77, 9.84 25.89, 30.67 0.04 M-22.41 68.52 C2.36 40.06, 24.52 15.22, 35.33 0.28 M-20.29 65.81 C1.35 39.94, 23.88 14.52, 37.38 1.25 M-20.38 74.57 C-0.2 50.7, 15.97 28.06, 43.62 -0.31 M-21.05 73.07 C3.01 46.7, 26.88 18.97, 41.74 1.14 M-17.6 75.18 C1.3 51.32, 17.46 30.63, 48.53 2.41 M-16.78 74.01 C8.78 44.72, 32.38 18.49, 46.17 1.77 M-11.65 73.87 C11.91 50.17, 30.77 24.48, 51.86 -0.79 M-9.77 72.24 C10.18 49.27, 31.13 25.75, 53.32 1.4 M-4.53 73.92 C10.69 54.9, 26.26 40.5, 58.97 -0.2 M-4.71 73.28 C14.63 49.7, 35.53 25.21, 56.62 1.18 M-1.71 71.96 C16.45 53.41, 32.8 32.69, 64.25 0.62 M-0.07 73.56 C23.77 46.78, 44.83 20.53, 63.43 0.36 M4.11 72.43 C25.36 47.21, 48.48 21.77, 66.77 0.03 M5.88 74.1 C23.98 50.62, 42.14 29.52, 68.4 0.71 M11.16 74.65 C22.04 59.56, 35 43.28, 71.76 2.15 M10.9 72.92 C31.05 47.35, 52.86 24.99, 72.56 1.71 M16.21 71.94 C37.67 47.91, 59.02 26.79, 77.44 0.23 M16.04 73.52 C32.78 53.03, 50.7 32.17, 77.99 1.21 M20.7 74.8 C43.31 49.04, 62.12 25.15, 82.03 0.06 M21.5 73.27 C44.03 49.34, 65.48 24.04, 84.34 2.19 M26.34 73.98 C47.5 52.57, 64.27 27.94, 88.48 0.57 M25.94 73.9 C41.63 57.49, 55.04 40.86, 89.38 0.61 M33.31 71.62 C55.66 46.98, 78.99 21.23, 95.43 1.2 M32.25 71.91 C51.68 50.61, 71.91 27.76, 93.58 2.15 M36.43 71.64 C51.66 56.92, 66.4 40.51, 100.07 1.31 M37.59 72.23 C62.62 45.13, 86.64 16.55, 98.69 0.92 M44.11 74.6 C65.22 49.42, 87.03 24.49, 103.65 -0.01 M41.83 72.49 C55.44 56.52, 69.16 42.05, 104.91 0.55 M49.11 72.58 C64.03 55.76, 79.97 37.66, 111.08 3.27 M48.17 73.09 C73 45.93, 95.89 17.5, 110.2 0.76 M52.89 71.55 C76.19 43.11, 102.69 16.65, 116.43 -0.1 M53.06 73 C67.51 57.53, 80.49 40.24, 115.45 2.42 M59.68 70.51 C83.77 45.04, 102.99 21.19, 121.77 0.81 M58.01 72.13 C81.32 47.1, 102.18 22.56, 121.03 2.34 M64.14 72.61 C87.03 45.27, 109.71 19.37, 124.15 2.45 M62.93 73.78 C89.01 45.65, 111.1 17.7, 125.45 1.89 M69.47 72.23 C92.97 49.12, 111.05 24.44, 132.39 3.39 M69.91 73.11 C91.4 48.46, 113.07 22.92, 129.79 2.97 M75.03 74.2 C92.64 55.11, 108.76 34.86, 137.94 3.73 M74.57 73.52 C97.37 47.89, 120.58 22.16, 136.35 2.69 M78.49 72.83 C93.73 56.52, 103.81 42.71, 141.86 0.49 M79.84 73.13 C92.9 58.18, 105.38 43.05, 141.21 2.05 M84.08 70.34 C108.08 46.47, 130.11 19.58, 148.23 3.41 M85.94 72.46 C100.32 54.1, 116.61 36.38, 147.4 1.14 M89.45 71.71 C111.9 46.35, 135.27 19.63, 151.82 2.18 M90.93 72.63 C106.1 55.48, 121.44 36.78, 152.22 1.56 M96.51 71.58 C113.69 50.01, 129.71 32.7, 155.51 2.22 M97.19 71.5 C120.26 44.69, 145.1 17.9, 156.36 1.65 M99.72 72.59 C120.59 53.35, 136.82 33.27, 161.26 4.09 M101.45 71.41 C123.7 46.51, 144.88 22.21, 162.54 3.1 M108.22 72.55 C127.76 49.23, 147.21 25.86, 168.93 2.91 M106.57 71.59 C127.64 47.84, 148.45 24.63, 168.09 1.72 M113.4 71.51 C136.24 44.45, 158.94 16.92, 173.18 0.92 M112.85 72.6 C131.87 49.26, 153.52 25.2, 173.42 3.34 M119.12 70.94 C138.5 47.3, 160.27 22.79, 178.33 2.85 M117.86 72.78 C137.67 50.05, 156.91 28, 178.66 2.47 M121.25 72.81 C146.29 44.4, 170.01 21.82, 181.27 3.39 M121.73 72.67 C142.86 48.77, 163.39 25.39, 182.22 3.05 M129.83 70.75 C144.61 50.95, 162.32 32.43, 188.93 2.94 M128.98 71.46 C147.95 47.68, 170.25 23.56, 187.95 1.58 M133.37 72.39 C151.47 51.13, 170.08 30.35, 193.91 2.84 M134.48 70.69 C147.66 55.81, 161.23 38.68, 194.48 3.61 M137.64 70.29 C150.64 55.63, 165.45 42.59, 199.95 1.16 M138 72.39 C156.38 52.51, 173.39 33.04, 198.33 2.85 M144.59 72.73 C162.12 49.67, 180.59 27.97, 204.83 4.14 M144.7 71.33 C158.65 55.11, 173.1 37.91, 204.56 1.96 M148.54 70.19 C168.96 49.39, 186.9 27.23, 211.29 1.52 M149.16 72.65 C165.2 52.72, 181.32 34.63, 209.3 3.16 M154.39 70.37 C170.04 53.49, 186.67 36.09, 216.46 2.47 M155.12 72.34 C172.48 51.5, 191.77 30.05, 214.98 3.42 M161.19 73.39 C176.3 50.78, 192.83 30.69, 219.55 2.64 M160.85 71.67 C171.93 55.62, 186.72 40.77, 219.55 2.97 M164.29 70.88 C186.33 49.18, 203.68 24.4, 223.25 4.09 M164.94 71.58 C184.65 50.81, 203.98 28.5, 225.75 4.39 M170.96 73.14 C191.49 49.3, 212.47 22.62, 228.69 2.65 M171.62 71.21 C191.31 49.86, 208.71 27.94, 229.59 3.36 M178.5 72.19 C193.58 52.94, 206.18 35.79, 234.3 3.31 M176.55 72.24 C193.28 53.79, 208.74 34.67, 235.01 3.35 M182.54 72.24 C195.88 52.01, 210.36 37.89, 240.68 4.8 M182.83 70.64 C204.04 45.58, 225.07 20.73, 240.4 3.51 M187.9 72.51 C210.76 44.19, 235.03 17.09, 245.45 3 M187.48 70.86 C207.28 47.38, 228.15 24.78, 247.11 3.39 M191.37 70.09 C206.47 57.76, 216.47 44.55, 250.17 2.34 M192.03 69.94 C205.75 57.79, 217.19 43.37, 252.11 3.65 M198.06 70.37 C217.83 47.38, 239.88 23.3, 257.86 3.61 M198.42 71.31 C210.22 57.28, 222.67 42.14, 257.16 3.2 M203.5 70.11 C213.92 58.31, 226.32 42.37, 260.52 3.14 M202.88 71.15 C223.35 49.3, 242.44 25.85, 262.05 3.65 M209.26 72.62 C224.7 52.2, 238.56 34.99, 268.73 4.64 M209.2 70.84 C225.63 51.98, 242.88 32.26, 265.82 4.54 M213.06 70.81 C234.58 49.61, 250.37 29.02, 274.43 2.6 M214.56 71.41 C226.85 54.42, 240.28 39.05, 273.33 3.95 M220.44 70.41 C231.43 57.79, 246.68 40.06, 277.93 5.65 M218.84 72 C237.6 49.19, 258.2 25.43, 277.86 3.27 M222.84 69 C244.21 51.39, 263.44 27.56, 279.98 5.94 M224.41 70.23 C240.36 53.23, 255.67 36.97, 280.93 5.84 M229.9 70.47 C250.94 48.47, 271.86 23.13, 281.47 10.3 M230.14 69.95 C242.78 56.85, 253.43 42.43, 281.66 11.41 M236.32 71.81 C249.82 53.05, 265.69 34.17, 281.37 18.26 M235.9 71.43 C245.03 58.54, 253.49 48.59, 282.4 17.52 M240.66 70.07 C249.5 59.39, 262.57 45.88, 281.89 25.28 M241.1 69.47 C249.65 59.81, 256.89 51.83, 281.61 24 M245.67 72.68 C252.41 62.94, 261.64 54.8, 281.89 30.09 M246.67 71.19 C255.91 59.32, 266.27 47.26, 280.88 29.65 M252.38 68.57 C257.08 61.63, 266.16 54.84, 283.75 34.05 M250.85 70.4 C257.48 63.69, 263.7 55.58, 281.58 34.9 M-22.22 72.81 C-22.22 72.81, -22.22 72.81, -22.22 72.81 M-22.22 72.81 C-22.22 72.81, -22.22 72.81, -22.22 72.81 M-15.6 73.11 C-17.83 72.64, -18.8 70.39, -22.49 67.55 M-15.5 73.24 C-18.21 71.64, -19.88 69.19, -21.96 67.51 M-9.5 72.12 C-12.81 70.41, -16.54 66.16, -22.64 63.9 M-10.02 72.85 C-13.41 69.8, -15.69 68.63, -21.02 62.9 M-4.4 74.89 C-9.98 68.61, -12.45 62.46, -22.3 58.08 M-4.25 72.3 C-7.2 69.41, -12.35 66.11, -21.9 56.47 M1.01 70.63 C-1.13 66.78, -9.26 62.87, -23.18 54.12 M1.48 72.78 C-6.46 65.38, -12.08 59.08, -21.79 53 M8.59 73.66 C-3.03 64.19, -14.78 53.5, -21.04 45.35 M7.66 72.4 C2.1 66.94, -5.25 62.43, -20.2 48.11 M14.73 72.25 C-0.8 62.34, -11.66 50.79, -21.61 43.24 M14.34 73.38 C2.64 61.83, -8.75 53.51, -21.12 42.12 M21.49 70.82 C4.58 59.2, -8.47 48.02, -21.8 36.89 M19.8 71.75 C10.79 63.89, 1.69 56.19, -21.99 36.44 M27.48 73.81 C13.55 60.4, 1.21 51.54, -20.61 30.84 M25.04 72.59 C13.48 61.65, 3.57 51.68, -20.97 32.78 M30.74 72.04 C19.66 62.1, 11.21 54.88, -15.99 28.2 M32.41 71.67 C19.81 61.36, 6.33 50.25, -18.04 29.51 M39.57 70.61 C17.63 55.92, 1.52 40.46, -15.77 24.45 M38.15 72.66 C21.68 57.2, 4.11 42.57, -16.29 24.84 M43.48 71.28 C29.32 57.74, 13.7 43.06, -14.67 21.87 M44.92 72.82 C26.15 58.67, 10.56 43.55, -13.26 22.5 M51.98 72.29 C33.38 54.94, 13.04 40.75, -12.53 19.98 M50.4 72.17 C27.32 51.63, 3.7 33.24, -11.43 19.56 M57.54 70.82 C36.13 52.38, 14.62 33.95, -7.65 14.75 M55.87 73.21 C41.28 58.85, 26.35 47.51, -9.88 14.87 M62.38 70.79 C47.22 58.49, 30.78 44.36, -6.64 12.27 M62.7 72.06 C41.08 53.49, 19.75 35.74, -6.52 12.15 M69.43 73.26 C45.36 50.83, 21.44 33.77, -5.59 8.68 M68.99 72.19 C48.09 54.84, 28.28 35.46, -5.48 9.11 M73.13 72.35 C53.83 54.57, 33.74 37.73, -3.9 3.83 M74.08 71.6 C55.44 55.14, 35.76 38.12, -3.33 4.53 M82.36 73.52 C60.14 52.36, 36.91 36.71, -1.68 0.47 M81.15 72.46 C60.85 55.64, 42.09 38.56, -0.74 2.71 M87.28 73.53 C59.27 48.69, 31.85 27.65, 2.85 -0.57 M85.75 72.39 C55.46 45.28, 26.62 18.43, 1.81 -2.06 M94.22 70.79 C59.63 42.3, 28.26 17.76, 7.33 -3.46 M92.39 72.06 C61.14 43.13, 29.1 16.17, 7.61 -1.21 M96.55 73.22 C71.04 48.35, 44.79 25.82, 12.73 -3.24 M99.08 72.42 C79.39 54.12, 59.81 37.28, 13 -2.48 M105.57 72.63 C78.65 49.25, 55.54 26.17, 21.61 -1.68 M103.9 72.37 C75.52 47.55, 45.62 21.14, 19.21 -2.47 M109.37 72.6 C87.74 52.65, 63.94 29.93, 25.95 -1.98 M109.57 71.97 C86.75 50.84, 64.03 31.76, 25.92 -2.02 M115.7 70.87 C94.72 52.4, 71.3 34.41, 31 -1.06 M116.01 72.1 C90.17 49.41, 63.38 26.23, 32.83 -1.17 M122.84 71.18 C93.2 45.32, 67.45 20.93, 38.7 -1.71 M122.89 71.69 C92.07 44.14, 59.12 16.18, 38.69 -2.05 M130.54 69.67 C99.7 45.88, 72.43 21.79, 43.54 -0.86 M128.23 71.35 C95.09 42.23, 62.65 13.24, 44.92 -1.77 M134.78 70.76 C107.22 46.8, 80.21 28.02, 52.9 -0.38 M134.89 70.58 C116.1 55.72, 98.65 41.43, 51.6 -1.96 M138.74 69.5 C106.93 44.25, 75.63 16.27, 58.97 0.63 M141.21 71.5 C122.8 56.52, 107.16 40.65, 57.1 -1.73 M147.64 71.47 C114.88 45.2, 83.05 14.29, 62.1 -2.29 M145.53 69.98 C119.29 47.48, 92.34 22.36, 63.08 -0.45 M151.63 71.14 C125.54 46.55, 100.99 26.17, 70.7 0.76 M152.77 71.34 C124.94 46.16, 95.86 22.71, 70.12 -0.81 M156.62 71.76 C141.21 56.16, 123.93 40.17, 77.58 -0.77 M158.97 71.56 C135.85 51.46, 112.04 31.6, 75.73 -0.22 M163.22 71.69 C145.29 57.07, 126.24 40.31, 83.86 -2.14 M163.88 70.95 C141.73 50.23, 116.89 29.81, 81.93 0.19 M169.56 72.36 C153.17 56.18, 138.57 40.65, 86.29 0.52 M169.5 71.34 C149.13 50.92, 126.1 31.43, 88.29 -1.26 M178.21 72.56 C157.22 55.94, 138.39 35.6, 93.21 -2.07 M176.67 71.78 C152.64 49.65, 126.73 27.32, 93.57 0.21 M183.01 72.35 C162.94 53.11, 142.86 35.65, 100.86 0.87 M181.58 69.7 C156.87 48.04, 128.99 22.83, 101.68 0.4 M187.99 71.46 C163.41 48.49, 141.5 30.11, 109.27 -0.09 M188.4 70.62 C159.6 45.94, 130.34 20.24, 107.31 -0.86 M194.21 69.11 C163.61 44.63, 129.35 16.02, 113.63 1.24 M193.8 71.33 C168.4 48.38, 140.38 24.14, 112.95 -0.55 M202.65 70.43 C172.23 45.47, 141.82 19.42, 120.19 -1.58 M201.53 71.6 C172.34 44.32, 143.76 20.01, 118.52 0.6 M205.07 70.31 C178.12 48.01, 150.31 22.95, 126.61 1.54 M206.95 69.31 C177.95 45.23, 147.64 18.57, 125.34 0.57 M214.94 71.8 C181.2 42.59, 147.97 13.47, 133.08 0.36 M213.65 70.19 C184.13 46.43, 155.37 20.58, 131 0.52 M218.21 69.96 C187.98 45.28, 159.66 19.07, 137.49 -0.63 M217.94 71.01 C187.2 42.78, 157.05 16.12, 138.19 -0.87 M224.31 70.25 C193.7 44.19, 163.3 15.83, 143.75 -1.03 M225.5 71.23 C199.31 49.19, 174.95 26.84, 144.72 1.17 M228.92 68.38 C210.36 53.91, 193.22 35.44, 149.68 -0.75 M229.85 70.2 C202.6 46.12, 174.89 23.08, 151.07 0.49 M236.91 68.73 C208.8 47.97, 182.67 23.49, 154.41 -0.2 M237 70.86 C207.8 46.05, 179.24 21.1, 155.52 -0.8 M241.18 68.19 C221.47 53.26, 205.43 38.14, 162.24 -0.58 M241.92 68.94 C221.66 52.54, 201.63 33.66, 163.64 0.71 M249.57 70.54 C227.25 53.1, 208.46 32.83, 171 1.35 M249.2 70.61 C222.67 46.62, 195.61 24.39, 168.42 0.22 M253.41 68.36 C224.73 44.25, 196.59 18.24, 175.95 1.01 M253.27 67.71 C223.86 42.89, 193.99 16.02, 175.77 1.83 M255.75 66.01 C226.93 38.97, 198.28 16.6, 181.12 1.81 M254.29 64.06 C238.61 50.63, 221.48 35.66, 181.6 -0.42 M257.44 62.83 C234.95 41.66, 209.52 21.02, 187.25 -1.11 M257.94 61.96 C232.96 40.96, 207.6 18.22, 187.43 0.61 M259.7 60.31 C237.16 36.93, 210.17 14.88, 192.08 0.31 M261.69 58.67 C237.4 38.66, 213.47 18.29, 194.39 1.58 M262.34 55.79 C240.79 34.96, 214.41 13.25, 202.28 2.83 M264.65 55.44 C243.24 39.31, 223.96 21.11, 200.8 1.78 M265.56 52.99 C248.04 37.57, 231.78 24.18, 204.84 -0.34 M267.16 53.32 C244.13 35.22, 222.65 16.28, 205.26 0.23 M267.61 51.76 C254.43 39.3, 244.02 26.15, 210.88 0.3 M268.03 50.26 C247.08 31.93, 224.05 12.28, 212.18 0.78 M269.66 49.24 C252.52 30.53, 230.28 13.89, 220.08 -0.38 M271.15 47.54 C258.97 36.42, 247.25 26.72, 217.87 0.54 M272.67 44.95 C253.39 29.86, 237.28 13.18, 224.55 1.7 M274.07 44.22 C256.14 28.83, 238.59 12.75, 226.05 1.02 M278.26 41.92 C260 25.03, 241.36 8.68, 232.17 -0.39 M276.51 41.56 C264.13 29.85, 249.98 18.86, 231 1.21 M278.36 40.49 C261.8 25.79, 246.89 8.44, 238.5 3.15 M279.72 38.13 C269.58 29.95, 259.29 21.22, 237.03 0.64 M281.06 36.82 C267.8 20.77, 250.61 8.73, 243.14 0.03 M281.99 35.61 C268.44 22.25, 252.94 10.21, 242.61 1.91 M280.98 29.28 C271.33 18.27, 259.82 8.45, 248.86 3 M282.77 30.54 C273.58 22.36, 264.21 13.62, 249.15 1.08 M282.93 25.53 C272.7 17.61, 263.64 9.65, 256.73 0.92 M281.96 24.69 C273.67 17.6, 265.66 10.06, 255.82 2.06 M283.5 17.75 C277.06 14.54, 270.56 9.55, 262.48 -0.05 M283.21 19.61 C274.97 13.2, 267.18 6.99, 261.6 1.13 M284.14 15.04 C279.06 9, 273.07 5.3, 268.37 3.23 M282.76 14.33 C276.94 10.77, 272.39 4.93, 268.86 2.02 M282.36 8.06 C280.12 7.32, 276.72 3.49, 274.36 2.46 M282.14 8.7 C278.76 6.58, 276.5 3.4, 274.29 1.32" stroke="#aa4a44" stroke-width="0.5" fill="none"></path><path d="M-0.5 0.24 C-5.39 9.02, -8.52 17.39, -19.38 34.04 M0.63 0.85 C-5.49 8.08, -8.08 14.72, -20.91 33.08 M-20.5 33.34 C-19.66 41.78, -19.85 51.33, -20.95 74.24 M-20.54 33.52 C-21.19 46.31, -21.37 60.29, -22.54 72.99 M-22.83 72.39 C83.66 70.75, 193.58 69.29, 252.03 71.42 M-21.82 72.9 C57.66 73.63, 138.06 72.75, 250.97 70.25 M251.31 68.72 C257.14 61.79, 264.12 58.51, 282.3 36.47 M250.53 69.98 C258.18 62.21, 267.06 52.98, 280.49 37.98 M280.04 37.47 C281.83 25.25, 281.3 14.28, 279.99 4.7 M280.2 38.51 C281.16 29.88, 281.27 21.53, 281.61 3.38 M282.18 3.2 C178.34 2.81, 72.26 -0.65, 0.41 0.05 M281.18 3.36 C218.06 2.36, 156.78 1.08, -0.47 -0.07 M0 0 C0 0, 0 0, 0 0 M0 0 C0 0, 0 0, 0 0" stroke="#000000" stroke-width="1" fill="none"></path></g></g><mask></mask><g stroke-linecap="round"><g transform="translate(248.58727466554672 573.061043396207) rotate(0 134.40048950246643 18.716005606516205)"><path d="M-1.26 0.43 C90.68 -0.58, 180.91 1.42, 270.06 -1.08 M-0.61 0.76 C70.99 -1.69, 142.35 -1.83, 269.1 -0.12 M269.88 -0.12 C269.19 13.38, 267.67 21.74, 268.78 38.69 M269.92 0.41 C268.71 9.45, 269.19 17.13, 270.02 38" stroke="#000000" stroke-width="2" fill="none"></path></g></g><mask></mask><g stroke-linecap="round"><g transform="translate(514.5899509252158 575.1330103337555) rotate(0 16.398503741249442 -14.825906148180366)"><path d="M0.55 0.38 C9.32 -7.53, 19.3 -16.96, 32.49 -29.32 M-0.35 0.94 C11.95 -10.01, 22.3 -20.01, 33.15 -30.59" stroke="#000000" stroke-width="2" fill="none"></path></g></g><mask></mask><g stroke-linecap="round"><g transform="translate(268.5559867964781 166.44608163050714) rotate(0 130.27271896429858 223.99670288583548)"><path d="M0 0 C0.62 80.08, 1.24 160.15, 2.89 373.45 M0 0 C1.13 146.07, 2.26 292.14, 2.89 373.45 M2.89 373.45 C-6.32 387, -15.54 400.56, -21.71 409.64 M2.89 373.45 C-5.11 385.22, -13.11 396.98, -21.71 409.64 M-21.71 409.64 C-21.44 424.47, -21.16 439.3, -20.99 448.72 M-21.71 409.64 C-21.56 417.58, -21.42 425.53, -20.99 448.72 M-20.99 448.72 C72.55 447.47, 166.09 446.22, 250.41 445.1 M-20.99 448.72 C83.59 447.32, 188.18 445.93, 250.41 445.1 M250.41 445.1 C259.14 434.98, 267.87 424.86, 282.26 408.19 M250.41 445.1 C261.22 432.57, 272.03 420.05, 282.26 408.19 M282.26 408.19 C281.57 278.72, 280.88 149.25, 280.09 -0.72 M282.26 408.19 C281.64 291.37, 281.02 174.56, 280.09 -0.72 M280.09 -0.72 C217.95 -0.56, 155.81 -0.4, 0 0 M280.09 -0.72 C212.72 -0.55, 145.35 -0.38, 0 0" stroke="#000000" stroke-width="4" fill="none"></path></g></g><mask></mask><g stroke-linecap="round"><g transform="translate(272.3756775078281 540.3223710448774) rotate(0 138.3977844721373 0.6164712003212571)"><path d="M0 0 C102.22 0.46, 204.43 0.91, 276.8 1.23 M0 0 C85.86 0.38, 171.73 0.76, 276.8 1.23" stroke="#000000" stroke-width="4" fill="none"></path></g></g><mask></mask></svg>