<svg version="1.1"
    width="350" height="350"
    xmlns="http://www.w3.org/2000/svg">

   
    <circle cx="175" cy="175" r="160" fill="none" stroke="black" />
    <circle cx="175" cy="175" r="150" fill="none" stroke="black" />
    <circle cx="175" cy="175" r="140" fill="none" stroke="black" />
    <circle cx="175" cy="175" r="130" fill="none" stroke="black" />
    <circle cx="175" cy="175" r="120" fill="none" stroke="black" />
    <circle cx="175" cy="175" r="110" fill="none" stroke="black" />
    <circle cx="175" cy="175" r="100" fill="none" stroke="black" />
    <circle cx="175" cy="175" r="90" fill="none" stroke="black" />
    <circle cx="175" cy="175" r="80" fill="none" stroke="black" />
    <circle cx="175" cy="175" r="70" fill="none" stroke="black" />
    <circle cx="175" cy="175" r="60" fill="none" stroke="black" />
    <circle cx="175" cy="175" r="50" fill="none" stroke="black" />
    <circle cx="175" cy="175" r="40" fill="none" stroke="black" />
    <circle cx="175" cy="175" r="30" fill="none" stroke="black" />
    <circle cx="175" cy="175" r="20" fill="none" stroke="black" />
    <circle cx="175" cy="175" r="10" fill="none" stroke="black" />
    <circle cx="175" cy="175" r="5" fill="none" stroke="black" />
    <circle cx="175" cy="175" r="4" fill="none" stroke="black" />
    <circle cx="175" cy="175" r="3" fill="none" stroke="black" />
    <circle cx="175" cy="175" r="2" fill="none" stroke="black" />
    <circle cx="175" cy="175" r="1" fill="none" stroke="black" />
  
    <rect x="126" y="142" width="98" height="86" fill="#F55D5D" stroke="#429253" stroke-width="6"/>
    <rect x="119" y="129" width="113" height="17" fill="#F55D5D" stroke="#429253" stroke-width="6"/>

</svg>